<?xml version="1.0" encoding="UTF-8"?>
<svg width="199px" height="255px" viewBox="0 0 199 255" version="1.1" xmlns="http://www.w3.org/2000/svg" xmlns:xlink="http://www.w3.org/1999/xlink">
    <!-- Generator: Sketch 56.3 (81716) - https://sketch.com -->
    <title>Logo</title>
    <desc>Created with Sketch.</desc>
    <defs>
        <polygon id="path-1" points="0.315915748 0.367480447 17.0115937 0.367480447 17.0115937 21.7765307 0.315915748 21.7765307"></polygon>
        <polygon id="path-3" points="0 69.6089385 149.257199 69.6089385 149.257199 0.322234637 0 0.322234637"></polygon>
        <linearGradient x1="-58.6117649%" y1="3.17134507%" x2="147.900601%" y2="96.8286549%" id="linearGradient-5">
            <stop stop-color="#C1C1C1" offset="0%"></stop>
            <stop stop-color="#FFFFFF" offset="100%"></stop>
        </linearGradient>
        <path d="M0.0353684211,14.4527945 C0.0353684211,20.9041352 4.22927719,28.7407087 14.5981193,28.7407087 L14.5981193,28.7407087 C23.7774035,28.7407087 29.5613193,22.1454941 29.5613193,13.7972365 L29.5613193,13.7972365 C29.5613193,5.45214977 23.9601404,0.166465753 14.9604491,0.166465753 L14.9604491,0.166465753 C4.12002807,0.166465753 0.0353684211,8.22301187 0.0353684211,14.4527945 M5.02270877,13.3239982 C5.02270877,4.25121826 9.75814737,1.91713059 13.9123649,1.91713059 L13.9123649,1.91713059 C19.8381474,1.91713059 24.5020632,6.98165297 24.5020632,15.1467982 L24.5020632,15.1467982 C24.5020632,25.6777388 18.6474105,26.917116 16.1177825,26.917116 L16.1177825,26.917116 C9.18124912,26.917116 5.02270877,20.9041352 5.02270877,13.3239982" id="path-6"></path>
        <linearGradient x1="22.6125175%" y1="0%" x2="74.6865612%" y2="100%" id="linearGradient-8">
            <stop stop-color="#C1C1C1" offset="0%"></stop>
            <stop stop-color="#FFFFFF" offset="100%"></stop>
        </linearGradient>
        <path d="M1.08304,7.05339178 C1.08304,10.0077626 2.38634667,12.557463 6.16336,15.6929644 L6.16336,15.6929644 L7.74032,17.0020986 C10.5903467,19.3714612 11.1048,21.0484055 11.1048,22.8371196 L11.1048,22.8371196 C11.1048,24.7669333 9.59504,26.9908365 6.50608,26.9908365 L6.50608,26.9908365 C4.37733333,26.9908365 2.35237333,26.0055178 1.59562667,23.3099616 L1.59562667,23.3099616 C1.42688,22.6916603 1.28874667,21.9251251 1.28874667,21.4534721 L1.28874667,21.4534721 C1.28874667,21.160968 1.25216,20.8292256 0.94416,20.8292256 L0.94416,20.8292256 C0.670133333,20.8292256 0.56784,21.2327068 0.531626667,21.7792694 L0.531626667,21.7792694 C0.4984,22.3599178 0.361386667,24.5489425 0.361386667,26.5532694 L0.361386667,26.5532694 C0.361386667,27.3558721 0.464426667,27.5373991 1.01248,27.7926466 L1.01248,27.7926466 C2.49088,28.4878393 4.03461333,28.7407087 6.02634667,28.7407087 L6.02634667,28.7407087 C7.84485333,28.7407087 9.76789333,28.4129297 11.4826133,27.2433096 L11.4826133,27.2433096 C13.9559467,25.5330721 14.71008,23.0182502 14.71008,20.9041352 L14.71008,20.9041352 C14.71008,17.4404584 13.23504,14.9252402 9.08058667,11.611779 L9.08058667,11.611779 L8.11962667,10.8460365 C5.26922667,8.55039452 4.47776,7.27376073 4.47776,5.5956274 L4.47776,5.5956274 C4.47776,3.41294429 6.02634667,1.84459909 8.56576,1.84459909 L8.56576,1.84459909 C10.7971733,1.84459909 11.7932267,2.93693151 12.30768,3.62736804 L12.30768,3.62736804 C13.02896,4.57939361 13.1999467,5.70779361 13.1999467,6.03517626 L13.1999467,6.03517626 C13.1999467,6.47274338 13.30448,6.69192329 13.5422933,6.69192329 L13.5422933,6.69192329 C13.8178133,6.69192329 13.9216,6.40140091 13.9216,5.5956274 L13.9216,5.5956274 C13.9216,2.75461187 14.0567467,1.69755434 14.0567467,1.22431598 L14.0567467,1.22431598 C14.0567467,0.970653881 13.8865067,0.858884018 13.57776,0.788334247 L13.57776,0.788334247 C12.6836267,0.532690411 11.2433067,0.166465753 9.01152,0.166465753 L9.01152,0.166465753 C4.23994667,0.166465753 1.08304,3.04553059 1.08304,7.05339178" id="path-9"></path>
        <linearGradient x1="-31.3726304%" y1="0%" x2="123.347757%" y2="100%" id="linearGradient-11">
            <stop stop-color="#C1C1C1" offset="0%"></stop>
            <stop stop-color="#FFFFFF" offset="100%"></stop>
        </linearGradient>
        <path d="M7.17418142,1.09588889 L3.55168525,24.1251111 C3.36988415,25.3392222 3.07589945,26.7306667 2.05431257,26.9476667 L2.05431257,26.9476667 C1.50612459,27.055 1.24635191,27.055 0.955549727,27.055 L0.955549727,27.055 C0.590356284,27.055 0.369967213,27.1277222 0.369967213,27.3054444 L0.369967213,27.3054444 C0.369967213,27.6266667 0.665543169,27.6997778 1.02874754,27.6997778 L1.02874754,27.6997778 C2.19832131,27.6997778 3.95307978,27.5936111 4.65124372,27.5936111 L4.65124372,27.5936111 C5.30684153,27.5936111 6.95617923,27.6997778 8.49293552,27.6997778 L8.49293552,27.6997778 C9.03953224,27.6997778 9.3689224,27.6266667 9.3689224,27.3054444 L9.3689224,27.3054444 C9.3689224,27.1277222 9.11432131,27.055 8.82033661,27.055 L8.82033661,27.055 C8.45394973,27.055 7.94275847,27.0192222 7.28397814,26.8761111 L7.28397814,26.8761111 C6.66259235,26.7306667 6.18720437,26.4106111 6.18720437,25.7308333 L6.18720437,25.7308333 C6.18720437,25.1591667 6.22141639,24.6944444 6.29580765,24.0531667 L6.29580765,24.0531667 L8.19895082,10.1072222 L8.34494863,10.1072222 C9.62511475,12.7843333 11.8198557,17.0068889 12.1476546,17.7593889 L12.1476546,17.7593889 C12.5888306,18.7596111 15.4781552,24.2312778 16.3557333,25.8755 L16.3557333,25.8755 C16.9413158,26.9476667 17.3061115,27.6636111 17.6358995,27.6636111 L17.6358995,27.6636111 C17.9636984,27.6636111 18.1466929,27.3392778 18.9892634,25.6604444 L18.9892634,25.6604444 L24.2046077,15.2253889 L24.2046077,10.1566111 L18.7696699,21.1547778 L8.78493115,1.27361111 C8.30636066,0.344555556 8.08875628,0.163333333 7.79676066,0.163333333 L7.79676066,0.163333333 C7.50317377,0.163333333 7.28397814,0.486888889 7.17418142,1.09588889" id="path-12"></path>
        <polygon id="path-14" points="0.114174764 0.32822087 4.99389309 0.32822087 4.99389309 6.93913043 0.114174764 6.93913043"></polygon>
    </defs>
    <g id="Symbols" stroke="none" stroke-width="1" fill="none" fill-rule="evenodd">
        <g id="Topo">
            <g id="Logo">
                <polygon id="Fill-37" fill="#000000" opacity="0.699730283" style="mix-blend-mode: multiply;" transform="translate(99.500000, 127.500000) scale(-1, 1) rotate(-90.000000) translate(-99.500000, -127.500000) " points="15.1098632 28 -28 78.5146105 -28 227 227 227 227 28"></polygon>
                <g transform="translate(24.000000, 60.000000)">
                    <polygon id="Fill-1" fill="#FEFEFE" points="99.9601038 13.9810863 99.9601038 13.4557486 100.617739 13.4557486 100.617739 1.17419355 95.7220116 14 94.8717361 14 89.9202834 1.17419355 89.9202834 13.4557486 90.5583591 13.4557486 90.5583591 13.9810863 87.7333333 13.9810863 87.7333333 13.4557486 88.6234655 13.4557486 88.6234655 0.52688172 87.7333333 0.52688172 87.7333333 0 90.7908563 0 95.3374686 11.6736146 99.8615693 0 102.666667 0 102.666667 0.52688172 101.989103 0.52688172 101.989103 13.4557486 102.666667 13.4557486 102.666667 13.9810863"></polygon>
                    <g id="Group-39">
                        <path d="M110.125259,9.77669274 C109.962764,9.61244693 109.732788,9.47948603 109.43572,9.37741899 C109.135938,9.27496089 108.81211,9.22294972 108.460748,9.22294972 C107.348101,9.23663687 106.504211,9.45915084 105.929079,9.88931844 C105.352395,10.3206592 105.066186,10.9033408 105.066186,11.6416648 C105.066186,12.2583687 105.237213,12.7624469 105.582758,13.1578101 C105.929079,13.5559106 106.44759,13.7541788 107.13868,13.7541788 C107.925949,13.7541788 108.578645,13.4929497 109.099871,12.9744022 C109.621485,12.4566369 109.962764,11.7867486 110.125259,10.9651285 L110.125259,9.77669274 Z M110.248585,14.6555754 L110.248585,13.1578101 C109.761099,13.7878101 109.224748,14.2324469 108.642634,14.4901564 C108.061297,14.7513855 107.484613,14.8808268 106.91491,14.8808268 C106.41385,14.8808268 105.959716,14.7951844 105.552896,14.6242905 C105.145688,14.4541788 104.800143,14.2211061 104.517037,13.9282011 C104.230828,13.6333408 104.015202,13.2880335 103.864341,12.8918883 C103.716195,12.4969162 103.64251,12.0726145 103.64251,11.6225028 C103.64251,10.5552961 104.048554,9.70278212 104.862582,9.05870391 C105.674283,8.41697207 106.813302,8.09512849 108.276535,8.09512849 C108.522023,8.09512849 108.807844,8.12132961 109.140591,8.17764246 C109.471787,8.23160894 109.80182,8.32820112 110.125259,8.46546369 L110.125259,7.03105028 C110.125259,6.1969162 109.920492,5.5892067 109.508242,5.20635754 C109.092502,4.82389944 108.499918,4.63149721 107.72855,4.63149721 C107.430706,4.63149721 107.115799,4.65808939 106.78344,4.7147933 C106.450305,4.76836872 106.148195,4.82624581 105.878275,4.8892067 C105.606415,4.94864804 105.289956,5.03546369 104.923857,5.14339665 L104.618645,4.20015642 C104.970007,4.05037989 105.290732,3.93501676 105.582758,3.85132961 C105.873621,3.77155307 106.216451,3.69138547 106.610473,3.6170838 C107.00372,3.54317318 107.416357,3.50484916 107.849161,3.50484916 C109.043249,3.50484916 109.946863,3.80322905 110.562717,4.39607821 C111.180121,4.99049162 111.488436,5.86803352 111.488436,7.03105028 L111.488436,13.1578101 L111.550486,14.1229497 L112.850837,14.1421117 L112.850837,14.6555754 L110.248585,14.6555754 Z" id="Fill-2" fill="#FEFEFE"></path>
                        <path d="M118.359196,14.7894358 C118.07609,14.8488771 117.791044,14.8805531 117.504835,14.8805531 C116.719118,14.8805531 116.156783,14.6721173 115.816668,14.2560279 C115.479655,13.8372011 115.310179,13.1802179 115.310179,12.277257 L115.310179,4.93977095 L113.459128,4.93977095 L113.459128,3.74898883 L115.310179,3.74898883 L115.310179,1.49569274 L116.672968,0.717089385 L116.672968,3.74898883 L118.906794,3.74898883 L118.906794,4.93977095 L116.672968,4.93977095 L116.672968,12.3605531 C116.672968,12.7973687 116.772637,13.1282067 116.976628,13.3522849 C117.179844,13.5783184 117.464114,13.6909441 117.832153,13.6909441 C118.087724,13.6909441 118.308004,13.6663073 118.491054,13.6096034 C118.67294,13.5560279 118.832721,13.5008883 118.969232,13.4453575 L118.989399,14.6138492 C118.85599,14.6678156 118.643854,14.727648 118.359196,14.7894358" id="Fill-4" fill="#FEFEFE"></path>
                        <path d="M126.000006,14.7894358 C125.718063,14.8488771 125.431854,14.8805531 125.148747,14.8805531 C124.361479,14.8805531 123.799144,14.6721173 123.460968,14.2560279 C123.122404,13.8372011 122.952927,13.1802179 122.952927,12.277257 L122.952927,4.93977095 L121.103428,4.93977095 L121.103428,3.74898883 L122.952927,3.74898883 L122.952927,1.49569274 L124.314553,0.717089385 L124.314553,3.74898883 L126.550318,3.74898883 L126.550318,4.93977095 L124.314553,4.93977095 L124.314553,12.3605531 C124.314553,12.7973687 124.416549,13.1282067 124.618214,13.3522849 C124.822206,13.5783184 125.108414,13.6909441 125.472963,13.6909441 C125.730085,13.6909441 125.949202,13.6663073 126.134191,13.6096034 C126.315301,13.5560279 126.475082,13.5008883 126.611593,13.4453575 L126.633699,14.6138492 C126.496799,14.6678156 126.287378,14.727648 126.000006,14.7894358" id="Fill-6" fill="#FEFEFE"></path>
                        <path d="M135.494736,7.42 C135.331853,6.87329609 135.098387,6.39698324 134.792787,5.99340782 C134.489127,5.59335196 134.124966,5.28167598 133.7069,5.06346369 C133.286506,4.8452514 132.824228,4.73379888 132.323169,4.73379888 C131.809311,4.73379888 131.341991,4.8452514 130.921598,5.06346369 C130.500428,5.28167598 130.142086,5.59335196 129.844242,5.99340782 C129.544847,6.39698324 129.312157,6.87329609 129.143457,7.42 C128.973593,7.96592179 128.888273,8.56698324 128.888273,9.2227933 C128.888273,9.87899441 128.973593,10.4800559 129.143457,11.0259777 C129.312157,11.5750279 129.544847,12.0454749 129.844242,12.4420112 C130.142086,12.8377654 130.500428,13.1463128 130.921598,13.3656983 C131.341991,13.5843017 131.809311,13.6910615 132.323169,13.6910615 C132.824228,13.6910615 133.286506,13.5843017 133.7069,13.3656983 C134.124966,13.1463128 134.489127,12.8377654 134.792787,12.4420112 C135.098387,12.0454749 135.331853,11.5750279 135.494736,11.0259777 C135.658783,10.4800559 135.738673,9.87899441 135.738673,9.2227933 C135.738673,8.56698324 135.658783,7.96592179 135.494736,7.42 M136.849769,11.4975978 C136.612037,12.1952514 136.275024,12.797486 135.840281,13.3039106 C135.405926,13.8079888 134.892068,14.203352 134.295994,14.49 C133.700695,14.7778212 133.042957,14.922514 132.323169,14.922514 C131.605707,14.922514 130.949521,14.7778212 130.352282,14.49 C129.755044,14.203352 129.241187,13.8079888 128.806832,13.3039106 C128.372476,12.797486 128.035463,12.1952514 127.791527,11.4975978 C127.546038,10.8011173 127.423488,10.0424581 127.423488,9.2227933 C127.423488,8.38944134 127.546038,7.62061453 127.791527,6.91592179 C128.035463,6.21240223 128.372476,5.60938547 128.806832,5.10374302 C129.241187,4.59731844 129.755044,4.20469274 130.352282,3.92469274 C130.949521,3.64312849 131.605707,3.50469274 132.323169,3.50469274 C133.042957,3.50469274 133.700695,3.64312849 134.295994,3.92469274 C134.892068,4.20469274 135.405926,4.59731844 135.840281,5.10374302 C136.275024,5.60938547 136.612037,6.21240223 136.849769,6.91592179 C137.084398,7.62061453 137.202682,8.38944134 137.202682,9.2227933 C137.202682,10.0424581 137.084398,10.8011173 136.849769,11.4975978" id="Fill-8" fill="#FEFEFE"></path>
                        <path d="M144.804594,14.071486 C144.141039,14.6518212 143.238589,14.9435531 142.101509,14.9435531 C141.559729,14.9435531 141.035013,14.8715978 140.525033,14.7276872 C140.016605,14.5826034 139.614051,14.3675196 139.316595,14.0812626 L139.316595,14.8805922 L138.787613,14.8805922 L138.787613,12.2976313 L139.398037,12.2976313 C139.437206,12.5025475 139.532609,12.6992514 139.682307,12.8818771 C139.830841,13.0688045 140.027464,13.2264022 140.271401,13.352324 C140.514562,13.4837207 140.789524,13.5865698 141.095124,13.6616536 C141.399948,13.7363464 141.729205,13.7731061 142.079792,13.7731061 C142.393148,13.7731061 142.687889,13.7257877 142.964402,13.6291955 C143.244406,13.5345587 143.489894,13.4051173 143.706296,13.2408715 C143.924637,13.0754525 144.09295,12.8795307 144.214724,12.6464581 C144.338826,12.4149497 144.396611,12.1537207 144.396611,11.8666816 C144.396611,11.2534972 144.19766,10.7842235 143.799372,10.463162 C143.39837,10.1413184 142.824788,9.86562011 142.079792,9.63254749 C141.661337,9.49528492 141.264212,9.34355307 140.892684,9.17148603 C140.517665,9.00254749 140.191123,8.7964581 139.906465,8.55673743 C139.621807,8.31936313 139.398037,8.03115084 139.237093,7.69562011 C139.072658,7.36165363 138.990053,6.96863687 138.990053,6.51656983 C138.990053,6.05277095 139.075373,5.63277095 139.245237,5.25578771 C139.413937,4.87997765 139.644689,4.564 139.936715,4.30277095 C140.228741,4.04349721 140.576613,3.84601117 140.984209,3.70953073 C141.387538,3.57226816 141.82965,3.50461453 142.303174,3.50461453 C142.765064,3.50461453 143.235874,3.57656983 143.717931,3.71969832 C144.19766,3.86165363 144.571904,4.03841341 144.844539,4.24293855 L144.844539,3.48467039 L145.353743,3.48467039 L145.353743,5.8412067 L144.764261,5.88187709 L144.764261,5.77941899 C144.560657,5.47869274 144.238381,5.21981006 143.799372,5.00159777 C143.357649,4.78338547 142.879858,4.67193296 142.367164,4.67193296 C141.702058,4.67193296 141.197896,4.84087151 140.851963,5.17483799 C140.50603,5.50997765 140.3319,5.93779888 140.3319,6.45439106 C140.3319,6.94634637 140.53279,7.3436648 140.93069,7.64517318 C141.331305,7.94668156 141.940177,8.2192514 142.750327,8.46562011 C143.823029,8.77964246 144.598663,9.19494972 145.079168,9.71467039 C145.560062,10.2347821 145.801284,10.9031061 145.801284,11.7235531 C145.801284,12.7074637 145.466986,13.491933 144.804594,14.071486" id="Fill-10" fill="#FEFEFE"></path>
                        <path d="M97.7980682,24.5144302 C97.5471506,23.7757151 97.1981153,23.1410223 96.7497988,22.6087877 C96.3045849,22.0745978 95.7690095,21.662419 95.1457876,21.369905 C94.5225656,21.0738715 93.8310879,20.9252682 93.0729056,20.9252682 C92.3120086,20.9252682 91.6216943,21.0738715 90.9984723,21.369905 C90.3736991,21.662419 89.8392873,22.0745978 89.3932977,22.6087877 C88.9445934,23.1410223 88.6013753,23.7757151 88.3558871,24.5144302 C88.1119502,25.251581 87.9897879,26.0583408 87.9897879,26.9307989 C87.9897879,27.8208547 88.1119502,28.6319162 88.3558871,29.3616369 C88.6013753,30.094486 88.9445934,30.7256592 89.3932977,31.2578939 C89.8392873,31.7901285 90.3736991,32.2042626 90.9984723,32.4991229 C91.6216943,32.7928101 92.3120086,32.9382849 93.0729056,32.9382849 C93.8310879,32.9382849 94.5225656,32.7928101 95.1457876,32.4991229 C95.7690095,32.2042626 96.3045849,31.7901285 96.7497988,31.2578939 C97.1981153,30.7256592 97.5471506,30.094486 97.7980682,29.3616369 C98.0482102,28.6319162 98.1750264,27.8208547 98.1750264,26.9307989 C98.1750264,26.0583408 98.0482102,25.251581 97.7980682,24.5144302 M99.2407475,29.9153799 C98.9211863,30.8101285 98.4705429,31.5777821 97.8884296,32.2222514 C97.3074797,32.8639832 96.6043674,33.3637598 95.7864613,33.7180615 C94.9670039,34.0723631 94.0606756,34.249514 93.0729056,34.249514 C92.0839722,34.249514 91.1811342,34.0723631 90.3678819,33.7180615 C89.5546296,33.3637598 88.8569467,32.8639832 88.2748334,32.2222514 C87.6907809,31.5777821 87.2401376,30.8101285 86.9232911,29.9153799 C86.6045055,29.0202402 86.4447248,28.0265531 86.4447248,26.9307989 C86.4447248,25.8545978 86.6045055,24.863257 86.9232911,23.9606872 C87.2401376,23.0588994 87.6907809,22.286162 88.2748334,21.6456034 C88.8569467,21.0019162 89.5546296,20.5033128 90.3678819,20.1474469 C91.1811342,19.7931453 92.0839722,19.6140391 93.0729056,19.6140391 C94.0606756,19.6140391 94.9670039,19.7931453 95.7864613,20.1474469 C96.6043674,20.5033128 97.3074797,21.0019162 97.8884296,21.6456034 C98.4705429,22.286162 98.9211863,23.0588994 99.2407475,23.9606872 C99.5587575,24.863257 99.7181503,25.8545978 99.7181503,26.9307989 C99.7181503,28.0265531 99.5587575,29.0202402 99.2407475,29.9153799" id="Fill-12" fill="#FEFEFE"></path>
                        <path d="M107.465842,33.4412682 C106.798797,34.0219944 105.898286,34.3125531 104.761982,34.3125531 C104.217487,34.3125531 103.693158,34.2402067 103.186282,34.0974693 C102.675914,33.9535587 102.274136,33.739648 101.977456,33.4510447 L101.977456,34.2492011 L101.448861,34.2492011 L101.448861,31.6666313 L102.057734,31.6666313 C102.096516,31.8735028 102.190755,32.0670782 102.340453,32.2516592 C102.49015,32.4362402 102.686773,32.5961844 102.932261,32.7232793 C103.175035,32.855067 103.449609,32.956352 103.754434,33.0314358 C104.057706,33.1061285 104.387739,33.1428883 104.74104,33.1428883 C105.050906,33.1428883 105.346035,33.096743 105.625263,32.9989777 C105.901389,32.9043408 106.148428,32.7760726 106.367545,32.6118268 C106.582395,32.447581 106.750708,32.2481397 106.874809,32.0154581 C106.995033,31.7847318 107.05592,31.524676 107.05592,31.2376369 C107.05592,30.6221061 106.85697,30.1551788 106.455967,29.8329441 C106.057679,29.5122737 105.484097,29.2354022 104.74104,29.0035028 C104.320646,28.8662402 103.922746,28.712162 103.55083,28.5412682 C103.176974,28.3711564 102.85082,28.1674134 102.566162,27.9257374 C102.279953,27.6867989 102.057734,27.400933 101.894851,27.0677486 C101.731968,26.7314358 101.649363,26.3376369 101.649363,25.886352 C101.649363,25.4237263 101.735458,25.0017709 101.903383,24.626743 C102.073247,24.250933 102.303998,23.9345642 102.594861,23.6745084 C102.886887,23.4132793 103.235922,23.2165754 103.642742,23.0781397 C104.048399,22.9443966 104.488959,22.8743966 104.964035,22.8743966 C105.424761,22.8743966 105.893632,22.9455698 106.376077,23.0906536 C106.85697,23.2333911 107.232764,23.4070223 107.505012,23.6103743 L107.505012,22.8532793 L108.013052,22.8532793 L108.013052,25.2098156 L107.423958,25.2516592 L107.423958,25.1492011 C107.219966,24.8484749 106.897691,24.588419 106.455967,24.3702067 C106.017734,24.1519944 105.539167,24.0428883 105.02531,24.0428883 C104.361367,24.0428883 103.855654,24.2114358 103.510497,24.5434469 C103.164176,24.8785866 102.991985,25.3064078 102.991985,25.8241732 C102.991985,26.3173017 103.192099,26.7146201 103.591163,27.0149553 C103.990614,27.3168547 104.59716,27.5890335 105.408473,27.8365754 C106.482338,28.1494246 107.256421,28.565905 107.738478,29.0844525 C108.219371,29.6045642 108.460593,30.2721061 108.460593,31.0925531 C108.460593,32.0772458 108.126295,32.8593687 107.465842,33.4412682" id="Fill-14" fill="#FEFEFE"></path>
                        <path d="M116.631432,34.0240279 L116.631432,33.5117374 L117.465627,33.5117374 L117.465627,26.7291676 C117.465627,25.9087207 117.286455,25.2583855 116.925398,24.7797263 C116.567055,24.3038045 116.075691,24.0629106 115.452469,24.0629106 C114.680713,24.0629106 114.015607,24.3476034 113.46064,24.9126872 C112.90645,25.4808994 112.517857,26.2552011 112.301843,27.2398939 L112.301843,33.5117374 L113.197701,33.5117374 L113.197701,34.0240279 L110.208407,34.0240279 L110.208407,33.5117374 L110.939054,33.5117374 L110.939054,23.6319609 C110.898333,23.6319609 110.815728,23.6296145 110.686197,23.6217933 C110.556667,23.6151453 110.446139,23.6104525 110.350736,23.6104525 L110.208407,23.6104525 L110.208407,23.1208436 L112.240568,23.1208436 L112.240568,24.7797263 C112.634202,24.1520726 113.125567,23.6781061 113.715048,23.3539162 C114.30453,23.0340279 114.964207,22.8744749 115.696406,22.8744749 C116.686115,22.8744749 117.455156,23.2131341 118.00159,23.8884972 C118.55229,24.5638603 118.828028,25.5047542 118.828028,26.7088324 L118.828028,33.5117374 L119.701392,33.5117374 L119.701392,34.0240279 L116.631432,34.0240279 Z" id="Fill-16" fill="#FEFEFE"></path>
                        <path d="M127.850475,29.1453017 C127.688367,28.9822291 127.45878,28.848095 127.159385,28.7468101 C126.861541,28.644743 126.537326,28.593905 126.185964,28.593905 C125.073317,28.606419 124.229427,28.828933 123.654295,29.2591006 C123.078774,29.6892682 122.789463,30.2719497 122.789463,31.0122291 C122.789463,31.629324 122.964368,32.1326201 123.307974,32.5283743 C123.654295,32.9233464 124.172806,33.1239609 124.863896,33.1239609 C125.649613,33.1239609 126.30386,32.863905 126.824699,32.3449665 C127.3467,31.8252458 127.688367,31.1565307 127.850475,30.3337374 L127.850475,29.1453017 Z M127.974188,34.0241844 L127.974188,32.5283743 C127.486315,33.1575922 126.949964,33.601838 126.367462,33.8622849 C125.786513,34.1211676 125.208277,34.2494358 124.640901,34.2494358 C124.141005,34.2494358 123.684156,34.1661397 123.279276,33.9948547 C122.871292,33.8227877 122.525359,33.5897151 122.242253,33.2972011 C121.956044,33.0042961 121.741193,32.6589888 121.591496,32.2616704 C121.442186,31.8655251 121.366174,31.4412235 121.366174,30.9911117 C121.366174,29.9254693 121.774545,29.0713911 122.586634,28.4296592 C123.399499,27.7879274 124.540456,27.4660838 126.002914,27.4660838 C126.246851,27.4660838 126.534612,27.493067 126.866195,27.5462514 C127.198554,27.6025642 127.528199,27.6995475 127.850475,27.836419 L127.850475,26.3996592 C127.850475,25.5655251 127.644932,24.9578156 127.233458,24.5761397 C126.818494,24.1936816 126.225909,24.0012793 125.451826,24.0012793 C125.15631,24.0012793 124.839076,24.0290447 124.509819,24.0834022 C124.175133,24.1369777 123.873411,24.1960279 123.601551,24.2578156 C123.33357,24.3196034 123.013233,24.4040726 122.648685,24.514352 L122.34231,23.5711117 C122.696387,23.4213352 123.014396,23.305581 123.307974,23.223067 C123.600388,23.1409441 123.941667,23.0623408 124.334138,22.9884302 C124.727772,22.9125642 125.141961,22.8746313 125.576316,22.8746313 C126.768465,22.8746313 127.672079,23.1730112 128.289484,23.7658603 C128.904174,24.3602737 129.213652,25.2389888 129.213652,26.3996592 L129.213652,32.5283743 L129.27609,33.4915587 L130.576053,33.5118939 L130.576053,34.0241844 L127.974188,34.0241844 Z" id="Fill-18" fill="#FEFEFE"></path>
                        <g id="Group-22" transform="translate(132.245605, 17.597765)">
                            <mask id="mask-2" fill="white">
                                <use xlink:href="#path-1"></use>
                            </mask>
                            <g id="Clip-21"></g>
                            <path d="M7.89308476,1.2657486 C7.42692869,1.2657486 6.9782244,1.34317877 6.55976983,1.49647486 C6.14092744,1.64742458 5.76047894,1.86094413 5.42385377,2.12882123 C5.07249154,2.40921229 4.79054857,2.76234078 4.58694463,3.17686592 C4.38062597,3.59295531 4.27320066,4.06105587 4.27320066,4.56982682 C4.27320066,5.36798324 4.56406343,6.20172626 5.12756156,7.04485475 C5.55183339,7.66468715 6.01760163,8.29194972 6.51478306,8.91843017 L6.72342861,9.18552514 L7.0375604,9.05960335 C8.27818706,8.56412849 9.24695399,8.02250838 9.92214343,7.45194972 C10.8711317,6.68351397 11.3566786,5.7011676 11.3566786,4.53971508 C11.3566786,3.4611676 11.0204412,2.63289944 10.3541716,2.07368156 C9.71466132,1.53792737 8.88667197,1.2657486 7.89308476,1.2657486 L7.89308476,1.2657486 Z M5.98463718,10.3966425 C4.70173847,10.9241844 3.67441117,11.628486 2.92941467,12.4931229 C2.11616237,13.4273687 1.70042252,14.4863631 1.70042252,15.637648 C1.70042252,16.3927877 1.84391482,17.0916145 2.13206287,17.7204413 C2.41090331,18.3430112 2.79290308,18.8908883 3.26914238,19.3468659 C3.74499387,19.8036257 4.30965546,20.1649665 4.94877791,20.4261955 C5.58983945,20.6862514 6.27937812,20.817648 6.99373708,20.817648 C8.2971901,20.817648 9.51881372,20.4465307 10.6244801,19.7105531 C11.1053732,19.3804972 11.6774033,18.9045754 12.3297115,18.2866983 L12.6403529,17.9910559 L6.29372735,10.2703296 L5.98463718,10.3966425 Z M6.83822245,21.7765307 C5.78801395,21.7765307 4.85298711,21.6056369 4.05408404,21.2669777 C3.2536297,20.9267542 2.56641794,20.4746872 2.00873706,19.9240726 C1.45493435,19.3750223 1.03105034,18.7481508 0.747556095,18.0579274 C0.46018368,17.3673128 0.315915748,16.6481508 0.315915748,15.9188212 C0.315915748,14.3960279 0.749107363,13.130162 1.59765101,12.1579832 C2.37483633,11.2585419 3.57745692,10.4775922 5.17642651,9.84172626 L5.79577029,9.59496648 L5.34086092,9.10340223 C4.82390083,8.5406648 4.30965546,7.85826257 3.81286185,7.07418436 C3.30171901,6.25960335 3.04614759,5.42546927 3.04614759,4.59915642 C3.04614759,3.98949162 3.17684193,3.42088827 3.428923,2.9132905 C3.6887604,2.39865363 4.04206171,1.94775978 4.48068277,1.57273184 C4.92007945,1.19340223 5.44828624,0.896586592 6.04280974,0.685022346 C6.64547739,0.474631285 7.30050035,0.367480447 7.98460957,0.367480447 C8.61364879,0.367480447 9.21631644,0.464463687 9.77981458,0.655692737 C10.3336173,0.846139665 10.8288596,1.1206648 11.2469264,1.46714525 C11.6669322,1.81245251 11.9884325,2.21993855 12.2323694,2.70954749 C12.4677744,3.18546927 12.5864464,3.7259162 12.5864464,4.31798324 C12.5864464,5.7832905 12.0497076,6.90055307 10.9393875,7.73468715 C10.4371644,8.11949162 9.92369469,8.4585419 9.40828587,8.74988268 C8.89559176,9.03926816 8.34915758,9.29658659 7.78798634,9.5206648 L7.19578975,9.75491061 L13.392718,17.1232905 L13.7173208,16.553514 C14.3106809,15.5011676 14.7524045,14.4672011 15.0281424,13.4797709 C15.2856529,12.576419 15.4787857,11.6816704 15.6067654,10.8127318 L16.4824562,10.8127318 L16.463841,11.1040726 C16.4246715,11.7254693 16.3374126,12.334352 16.2109843,12.9115587 C16.0783509,13.5036257 15.9119774,14.0831788 15.7126394,14.6392682 C15.3205564,15.6939609 14.8078623,16.6673128 14.1947236,17.527257 L13.9853024,17.8185978 L17.0118264,21.4210559 L15.4543533,21.4320056 L13.2503891,18.7289888 L12.8959244,19.1059721 C12.1885461,19.8591564 11.4555719,20.4512235 10.7125145,20.8661397 C9.58978424,21.4707207 8.28555559,21.7765307 6.83822245,21.7765307 L6.83822245,21.7765307 Z" id="Fill-20" fill="#F05A28" mask="url(#mask-2)"></path>
                        </g>
                        <path d="M94.5966775,51.2647151 C94.3655385,51.7406369 94.0502433,52.1547709 93.6511796,52.5035978 C93.251728,52.8504693 92.7762644,53.1249944 92.2290545,53.3244358 C91.6799056,53.5219218 91.0811161,53.6200782 90.4291957,53.6200782 C89.7648652,53.6200782 89.13156,53.5219218 88.527341,53.3244358 C87.9262247,53.1249944 87.4143062,52.8403017 86.9946882,52.4711397 L86.9946882,53.4163352 L86.4657057,53.4163352 L86.4657057,50.2190168 L87.0761297,50.2190168 L87.0761297,50.5467263 C87.15602,50.7797989 87.2987367,50.9987933 87.501565,51.2115307 C87.7036177,51.4242682 87.9525962,51.6115866 88.2426833,51.7758324 C88.5343218,51.9400782 88.8597002,52.072648 89.2203701,52.1751061 C89.5775495,52.2799106 89.9626518,52.3284022 90.3679206,52.3284022 C90.8150737,52.3284022 91.2249963,52.2607486 91.5984641,52.1242682 C91.9688293,51.9873966 92.2930443,51.7992961 92.5641284,51.5607486 C92.8344369,51.3218101 93.0481241,51.0386816 93.2036387,50.7097989 C93.3591533,50.3820894 93.4374924,50.0195754 93.4374924,49.6238212 C93.4374924,49.2941564 93.3835858,48.9981229 93.2761605,48.7310279 C93.1671839,48.4658883 92.9942175,48.2191285 92.7572613,47.9954413 C92.5179782,47.7670615 92.2042342,47.5531508 91.8117634,47.3478436 C91.4181291,47.1444916 90.937236,46.9384022 90.3679206,46.733486 C89.7850317,46.5289609 89.2541101,46.2958883 88.7716658,46.0346592 C88.2903848,45.7769497 87.8785232,45.4832626 87.5322026,45.1547709 C87.1870454,44.8270615 86.9194517,44.4559441 86.7305848,44.0382905 C86.5390032,43.6206369 86.4443758,43.1466704 86.4443758,42.6136536 C86.4443758,42.0935419 86.5506377,41.6129274 86.7612223,41.1675084 C86.9702557,40.7228715 87.2649966,40.3411955 87.6442817,40.019352 C88.0235667,39.6986816 88.4707198,39.4464469 88.9865164,39.2610838 C89.500374,39.0772849 90.0638721,38.9853855 90.6731326,38.9853855 C91.282781,38.9853855 91.8509329,39.0663352 92.3810788,39.2313631 C92.90851,39.3944358 93.3766051,39.6275084 93.7818739,39.9270615 L93.7818739,39.1077877 L94.3120198,39.1077877 L94.3120198,41.7928156 L93.6422598,41.7928156 L93.6422598,41.5691285 C93.4374924,41.2257765 93.0888449,40.9285698 92.5932147,40.6755531 C92.0983602,40.4244916 91.4662185,40.2962235 90.6944626,40.2962235 C89.866861,40.2962235 89.1924472,40.5042682 88.6712212,40.9219218 C88.1499951,41.3395754 87.8882186,41.8952737 87.8882186,42.5933184 C87.8882186,43.207676 88.1465047,43.7344358 88.6611379,44.1696872 C89.1753833,44.6088492 90.0107412,45.0319777 91.1613943,45.441419 C91.838135,45.6881788 92.4148189,45.9454972 92.8883435,46.2215866 C93.3630315,46.4953296 93.7539511,46.7976201 94.057224,47.1323687 C94.362436,47.4675084 94.5865942,47.8421453 94.7289231,48.2594078 C94.8712519,48.6774525 94.9426103,49.1522011 94.9426103,49.6832626 C94.9426103,50.258514 94.8258773,50.7848827 94.5966775,51.2647151" id="Fill-23" fill="#FEFEFE"></path>
                        <path d="M98.4388971,40.9523855 C98.2891997,41.1033352 98.1135186,41.1795922 97.9087512,41.1795922 C97.7063107,41.1795922 97.5294661,41.1033352 97.38132,40.9523855 C97.2316227,40.8014358 97.1591009,40.6258492 97.1591009,40.4201508 C97.1591009,40.2140615 97.2316227,40.0384749 97.38132,39.8875251 C97.5294661,39.7369665 97.7063107,39.6614916 97.9087512,39.6614916 C98.1135186,39.6614916 98.2891997,39.7369665 98.4388971,39.8875251 C98.5889823,40.0384749 98.661504,40.2140615 98.661504,40.4201508 C98.661504,40.6258492 98.5889823,40.8014358 98.4388971,40.9523855 L98.4388971,40.9523855 Z M96.2845735,53.3936145 L96.2845735,52.8832793 L97.1591009,52.8832793 L97.1591009,43.0015475 C97.1040309,43.0015475 97.0024228,43.0062402 96.8527254,43.0132793 C96.7026403,43.0183631 96.5676799,43.0218827 96.4470688,43.0218827 L96.2632436,43.0218827 L96.2632436,42.4908212 L98.4982331,42.4908212 L98.4982331,52.8832793 L99.3746995,52.8832793 L99.3746995,53.3936145 L96.2845735,53.3936145 Z" id="Fill-25" fill="#FEFEFE"></path>
                        <path d="M107.137478,43.6588827 C106.65038,43.616257 106.220678,43.692905 105.847598,43.8829609 C105.474131,44.0765363 105.16155,44.3612291 104.912184,44.7448603 C104.662042,45.1288827 104.470072,45.5879888 104.34248,46.1303911 C104.21295,46.6692737 104.149348,47.2672067 104.149348,47.9218436 L104.149348,52.8832402 L105.003709,52.8832402 L105.003709,53.3939665 L101.588204,53.3939665 L101.588204,52.8832402 L102.78811,52.8832402 L102.78811,43.0015084 C102.747389,43.0015084 102.658579,42.9983799 102.524006,42.992905 C102.386719,42.9835196 102.266108,42.9827374 102.157519,42.9827374 L101.995024,42.9827374 L101.995024,42.4907821 L104.028737,42.4907821 L104.028737,44.7448603 C104.339378,43.8559777 104.776448,43.2212849 105.338782,42.8384358 C105.899954,42.4571508 106.506887,42.2655307 107.159583,42.2655307 L107.991451,42.3468715 L107.991451,43.7206704 L107.137478,43.6588827 Z" id="Fill-27" fill="#FEFEFE"></path>
                        <path d="M115.948952,44.4264972 C115.41454,43.750352 114.718796,43.4113017 113.865987,43.4113017 C112.863868,43.4113017 112.056433,43.8277821 111.44756,44.6626983 C110.960849,45.3200726 110.668823,46.1585084 110.573032,47.1850447 L116.854117,47.1850447 C116.787412,46.0235922 116.485303,45.1038156 115.948952,44.4264972 L115.948952,44.4264972 Z M118.29796,48.2913575 L110.551315,48.2913575 C110.606385,49.5067765 110.931375,50.4914693 111.52745,51.2423073 C112.192556,52.0764413 113.091904,52.4948771 114.233637,52.4948771 C114.557465,52.4948771 114.903397,52.4393464 115.267558,52.3282849 C115.635208,52.2191788 115.972609,52.0975587 116.284414,51.9602961 C116.596994,51.8249888 116.954174,51.6451006 117.362933,51.4264972 L117.870973,52.4510782 C117.367199,52.6982291 116.932844,52.8988436 116.558988,53.0572235 C116.186296,53.2128659 115.776373,53.3544302 115.329996,53.4764413 C114.882843,53.6000168 114.454305,53.6618045 114.049036,53.6618045 C113.275729,53.6618045 112.586191,53.5288436 111.974603,53.2613575 C111.366118,52.9954358 110.847607,52.614933 110.421784,52.1245419 C109.994409,51.6337598 109.669807,51.0350447 109.444097,50.3319162 C109.221878,49.6272235 109.110187,48.8368883 109.110187,47.9613017 C109.110187,47.1443743 109.223429,46.3802402 109.455732,45.6778939 C109.685319,44.9732011 110.006432,44.3682291 110.421784,43.8641508 C110.834421,43.3585084 111.321131,42.9623631 111.885017,42.675324 C112.446964,42.3871117 113.065532,42.2443743 113.744212,42.2443743 C115.167113,42.2443743 116.278984,42.7543184 117.077887,43.7702961 C117.877178,44.7901844 118.290591,46.1999609 118.316575,48.0039274 L118.29796,48.2913575 Z" id="Fill-29" fill="#FEFEFE"></path>
                        <path d="M126.571144,53.3937709 L126.571144,52.8830447 L127.404563,52.8830447 L127.404563,46.0977374 C127.404563,45.2772905 127.225779,44.6293017 126.866273,44.1494693 C126.504052,43.6727654 126.014627,43.4338268 125.392956,43.4338268 C124.618485,43.4338268 123.95493,43.7165642 123.399576,44.2836034 C122.844998,44.8518156 122.45563,45.6272905 122.24233,46.6108101 L122.24233,52.8830447 L123.135861,52.8830447 L123.135861,53.3937709 L120.147731,53.3937709 L120.147731,52.8830447 L120.879541,52.8830447 L120.879541,43.0017039 C120.837269,43.0017039 120.751562,42.9981844 120.626685,42.9927095 C120.49599,42.9837151 120.383911,42.9825419 120.289672,42.9825419 L120.147731,42.9825419 L120.147731,42.4905866 L122.179892,42.4905866 L122.179892,44.1494693 C122.573138,43.5229888 123.064115,43.046676 123.654372,42.7248324 C124.242303,42.4049441 124.904694,42.2442179 125.635341,42.2442179 C126.626214,42.2442179 127.394867,42.5828771 127.940914,43.2582402 C128.491226,43.9347765 128.765801,44.8744972 128.765801,46.0774022 L128.765801,52.8830447 L129.640328,52.8830447 L129.640328,53.3937709 L126.571144,53.3937709 Z" id="Fill-31" fill="#FEFEFE"></path>
                        <path d="M137.792823,48.5162179 C137.62994,48.3543184 137.397638,48.2190112 137.099794,48.1169441 C136.801563,48.014486 136.476572,47.9613017 136.12521,47.9613017 C135.013727,47.9773352 134.168286,48.198676 133.594704,48.6311899 C133.019184,49.0601844 132.73026,49.6428659 132.73026,50.3819721 C132.73026,50.9978939 132.901675,51.5023631 133.249159,51.8981173 C133.594704,52.2942626 134.112052,52.4948771 134.804305,52.4948771 C135.590411,52.4948771 136.24427,52.2324749 136.764333,51.7139274 C137.285947,51.1938156 137.62994,50.5266648 137.792823,49.7046536 L137.792823,48.5162179 Z M137.913435,53.3939274 L137.913435,51.8981173 C137.425173,52.5273352 136.88921,52.9719721 136.306709,53.2320279 C135.724207,53.4909106 135.145972,53.620352 134.579759,53.620352 C134.078312,53.620352 133.625342,53.5370559 133.216583,53.3645978 C132.811702,53.1937039 132.467708,52.9606313 132.181111,52.6681173 C131.896453,52.373257 131.679664,52.0287318 131.530742,51.6337598 C131.381045,51.2352682 131.306584,50.8097933 131.306584,50.3608547 C131.306584,49.2940391 131.714567,48.4423073 132.527044,47.7982291 C133.341072,47.1564972 134.478927,46.8350447 135.942548,46.8350447 C136.186098,46.8350447 136.473858,46.8628101 136.806217,46.9183408 C137.137801,46.9723073 137.467445,47.0681173 137.792823,47.2049888 L137.792823,45.7705754 C137.792823,44.9364413 137.585341,44.3287318 137.171928,43.9458827 C136.758128,43.5622514 136.165543,43.3721955 135.3934,43.3721955 C135.095168,43.3721955 134.778322,43.3991788 134.447126,43.4543184 C134.116706,43.5078939 133.813821,43.5657709 133.541961,43.6287318 C133.27204,43.6905196 132.953643,43.7749888 132.587931,43.8829218 L132.282719,42.9396816 C132.634081,42.7922514 132.955582,42.675324 133.249159,42.5932011 C133.539246,42.5087318 133.880913,42.4320838 134.276099,42.3581732 C134.668182,42.280352 135.080819,42.2443743 135.514786,42.2443743 C136.707711,42.2443743 137.610549,42.541581 138.22873,43.1367765 C138.845747,43.7311899 139.155612,44.6091229 139.155612,45.7705754 L139.155612,51.8981173 L139.214561,52.8624749 L140.514911,52.8832011 L140.514911,53.3939274 L137.913435,53.3939274 Z" id="Fill-33" fill="#FEFEFE"></path>
                        <mask id="mask-4" fill="white">
                            <use xlink:href="#path-3"></use>
                        </mask>
                        <g id="Clip-36"></g>
                        <polygon id="Fill-35" fill="#FEFEFE" mask="url(#mask-4)" points="0 57.9439665 148.951987 57.9439665 148.951987 57.5568156 0 57.5568156"></polygon>
                        <polygon id="Fill-37" fill="#F05A28" mask="url(#mask-4)" points="13.4327019 0.322078212 -0.000116345107 13.8664916 -0.000116345107 53.679676 79.4566111 53.679676 79.4566111 0.322078212"></polygon>
                        <polygon id="Stroke-38" stroke="#FEFEFE" mask="url(#mask-4)" points="1.63724713 52.0311955 1.63724713 14.5506927 14.1106061 1.97063687 77.8215745 1.97063687 77.8215745 52.0311955"></polygon>
                    </g>
                    <g id="Group-42" transform="translate(30.800000, 13.066667)">
                        <mask id="mask-7" fill="white">
                            <use xlink:href="#path-6"></use>
                        </mask>
                        <use id="Clip-41" fill="url(#linearGradient-5)" xlink:href="#path-6"></use>
                        <path d="M0.0353684211,14.4527945 C0.0353684211,20.9041352 4.22927719,28.7407087 14.5981193,28.7407087 L14.5981193,28.7407087 C23.7774035,28.7407087 29.5613193,22.1454941 29.5613193,13.7972365 L29.5613193,13.7972365 C29.5613193,5.45214977 23.9601404,0.166465753 14.9604491,0.166465753 L14.9604491,0.166465753 C4.12002807,0.166465753 0.0353684211,8.22301187 0.0353684211,14.4527945 M5.02270877,13.3239982 C5.02270877,4.25121826 9.75814737,1.91713059 13.9123649,1.91713059 L13.9123649,1.91713059 C19.8381474,1.91713059 24.5020632,6.98165297 24.5020632,15.1467982 L24.5020632,15.1467982 C24.5020632,25.6777388 18.6474105,26.917116 16.1177825,26.917116 L16.1177825,26.917116 C9.18124912,26.917116 5.02270877,20.9041352 5.02270877,13.3239982" id="Fill-40" mask="url(#mask-7)"></path>
                    </g>
                    <g id="Group-45" transform="translate(59.733333, 13.066667)">
                        <mask id="mask-10" fill="white">
                            <use xlink:href="#path-9"></use>
                        </mask>
                        <use id="Clip-44" fill="url(#linearGradient-8)" xlink:href="#path-9"></use>
                        <path d="M1.08304,7.05339178 C1.08304,10.0077626 2.38634667,12.557463 6.16336,15.6929644 L6.16336,15.6929644 L7.74032,17.0020986 C10.5903467,19.3714612 11.1048,21.0484055 11.1048,22.8371196 L11.1048,22.8371196 C11.1048,24.7669333 9.59504,26.9908365 6.50608,26.9908365 L6.50608,26.9908365 C4.37733333,26.9908365 2.35237333,26.0055178 1.59562667,23.3099616 L1.59562667,23.3099616 C1.42688,22.6916603 1.28874667,21.9251251 1.28874667,21.4534721 L1.28874667,21.4534721 C1.28874667,21.160968 1.25216,20.8292256 0.94416,20.8292256 L0.94416,20.8292256 C0.670133333,20.8292256 0.56784,21.2327068 0.531626667,21.7792694 L0.531626667,21.7792694 C0.4984,22.3599178 0.361386667,24.5489425 0.361386667,26.5532694 L0.361386667,26.5532694 C0.361386667,27.3558721 0.464426667,27.5373991 1.01248,27.7926466 L1.01248,27.7926466 C2.49088,28.4878393 4.03461333,28.7407087 6.02634667,28.7407087 L6.02634667,28.7407087 C7.84485333,28.7407087 9.76789333,28.4129297 11.4826133,27.2433096 L11.4826133,27.2433096 C13.9559467,25.5330721 14.71008,23.0182502 14.71008,20.9041352 L14.71008,20.9041352 C14.71008,17.4404584 13.23504,14.9252402 9.08058667,11.611779 L9.08058667,11.611779 L8.11962667,10.8460365 C5.26922667,8.55039452 4.47776,7.27376073 4.47776,5.5956274 L4.47776,5.5956274 C4.47776,3.41294429 6.02634667,1.84459909 8.56576,1.84459909 L8.56576,1.84459909 C10.7971733,1.84459909 11.7932267,2.93693151 12.30768,3.62736804 L12.30768,3.62736804 C13.02896,4.57939361 13.1999467,5.70779361 13.1999467,6.03517626 L13.1999467,6.03517626 C13.1999467,6.47274338 13.30448,6.69192329 13.5422933,6.69192329 L13.5422933,6.69192329 C13.8178133,6.69192329 13.9216,6.40140091 13.9216,5.5956274 L13.9216,5.5956274 C13.9216,2.75461187 14.0567467,1.69755434 14.0567467,1.22431598 L14.0567467,1.22431598 C14.0567467,0.970653881 13.8865067,0.858884018 13.57776,0.788334247 L13.57776,0.788334247 C12.6836267,0.532690411 11.2433067,0.166465753 9.01152,0.166465753 L9.01152,0.166465753 C4.23994667,0.166465753 1.08304,3.04553059 1.08304,7.05339178" id="Fill-43" mask="url(#mask-10)"></path>
                    </g>
                    <g id="Group-48" transform="translate(5.600000, 14.000000)">
                        <mask id="mask-13" fill="white">
                            <use xlink:href="#path-12"></use>
                        </mask>
                        <use id="Clip-47" fill="url(#linearGradient-11)" xlink:href="#path-12"></use>
                        <path d="M7.17418142,1.09588889 L3.55168525,24.1251111 C3.36988415,25.3392222 3.07589945,26.7306667 2.05431257,26.9476667 L2.05431257,26.9476667 C1.50612459,27.055 1.24635191,27.055 0.955549727,27.055 L0.955549727,27.055 C0.590356284,27.055 0.369967213,27.1277222 0.369967213,27.3054444 L0.369967213,27.3054444 C0.369967213,27.6266667 0.665543169,27.6997778 1.02874754,27.6997778 L1.02874754,27.6997778 C2.19832131,27.6997778 3.95307978,27.5936111 4.65124372,27.5936111 L4.65124372,27.5936111 C5.30684153,27.5936111 6.95617923,27.6997778 8.49293552,27.6997778 L8.49293552,27.6997778 C9.03953224,27.6997778 9.3689224,27.6266667 9.3689224,27.3054444 L9.3689224,27.3054444 C9.3689224,27.1277222 9.11432131,27.055 8.82033661,27.055 L8.82033661,27.055 C8.45394973,27.055 7.94275847,27.0192222 7.28397814,26.8761111 L7.28397814,26.8761111 C6.66259235,26.7306667 6.18720437,26.4106111 6.18720437,25.7308333 L6.18720437,25.7308333 C6.18720437,25.1591667 6.22141639,24.6944444 6.29580765,24.0531667 L6.29580765,24.0531667 L8.19895082,10.1072222 L8.34494863,10.1072222 C9.62511475,12.7843333 11.8198557,17.0068889 12.1476546,17.7593889 L12.1476546,17.7593889 C12.5888306,18.7596111 15.4781552,24.2312778 16.3557333,25.8755 L16.3557333,25.8755 C16.9413158,26.9476667 17.3061115,27.6636111 17.6358995,27.6636111 L17.6358995,27.6636111 C17.9636984,27.6636111 18.1466929,27.3392778 18.9892634,25.6604444 L18.9892634,25.6604444 L24.2046077,15.2253889 L24.2046077,10.1566111 L18.7696699,21.1547778 L8.78493115,1.27361111 C8.30636066,0.344555556 8.08875628,0.163333333 7.79676066,0.163333333 L7.79676066,0.163333333 C7.50317377,0.163333333 7.28397814,0.486888889 7.17418142,1.09588889" id="Fill-46" mask="url(#mask-13)"></path>
                    </g>
                    <g id="Group-90" transform="translate(0.000000, 60.666667)">
                        <path d="M3.10008377,6.25022087 C2.79085236,6.49491652 2.37168063,6.61762957 1.84256859,6.61762957 C1.5900555,6.61762957 1.34570052,6.58768174 1.10989215,6.52705565 C0.873306806,6.46716 0.685281675,6.37512522 0.546593717,6.25460348 L0.546593717,6.59206435 L0.300684817,6.59206435 L0.300684817,5.50189043 L0.58427644,5.50189043 C0.603700524,5.58844696 0.647598953,5.66952522 0.717137173,5.74877739 C0.786675393,5.82583826 0.877580105,5.89267304 0.991016754,5.94782087 C1.1044534,6.00187304 1.23226387,6.04533391 1.37444817,6.07674261 C1.5158555,6.10961217 1.6685288,6.12458609 1.83246806,6.12458609 C1.97776021,6.12458609 2.11489424,6.10486435 2.24464712,6.06396 C2.37323455,6.0241513 2.48861361,5.96900348 2.58961885,5.89924696 C2.68984712,5.83022087 2.76909738,5.74658609 2.82581571,5.64834261 C2.88253403,5.55046435 2.91089319,5.44053391 2.91089319,5.32001217 C2.91089319,5.06034261 2.81765759,4.86349043 2.63157487,4.72726435 C2.44588063,4.5917687 2.17977068,4.4741687 1.83246806,4.37629043 C1.63706178,4.31931652 1.45292147,4.25357739 1.27965864,4.18162957 C1.10600733,4.10968174 0.953334031,4.02312522 0.82086178,3.92196 C0.68877801,3.82152522 0.58427644,3.70027304 0.508910995,3.55893391 C0.433157068,3.41759478 0.395085864,3.2521513 0.395085864,3.06114261 C0.395085864,2.86538609 0.435099476,2.68716 0.513961257,2.52902087 C0.592434555,2.36978609 0.699267016,2.23648174 0.835235602,2.1265513 C0.970427225,2.01662087 1.13320105,1.9333513 1.32239162,1.87528174 C1.51119372,1.81830783 1.71592356,1.78909043 1.93696963,1.78909043 C2.15102304,1.78909043 2.37051518,1.81903826 2.59389215,1.87966435 C2.81765759,1.94029043 2.99286283,2.01442957 3.11911937,2.10025565 L3.11911937,1.78069043 L3.35492775,1.78069043 L3.35492775,2.77554261 L3.08065969,2.79270783 L3.08065969,2.74997739 C2.98625864,2.62288174 2.83669319,2.51331652 2.63157487,2.4205513 C2.42723351,2.32924696 2.20463351,2.28286435 1.9653288,2.28286435 C1.65609738,2.28286435 1.42145445,2.35262087 1.26101152,2.49469043 C1.1001801,2.63602957 1.0197644,2.81571652 1.0197644,3.03521217 C1.0197644,3.2437513 1.11261152,3.41065565 1.29869424,3.53738609 C1.48438848,3.66448174 1.76642618,3.77916 2.14480733,3.88288174 C2.64245236,4.01545565 3.0041288,4.19222087 3.22750576,4.41062087 C3.4512712,4.63011652 3.56276545,4.91279478 3.56276545,5.25938609 C3.56276545,5.67390783 3.4089267,6.00479478 3.10008377,6.25022087" id="Fill-49" fill="#FEFEFE"></path>
                        <path d="M10.3340399,3.44118783 C10.2586745,3.21073565 10.1495111,3.0102313 10.0073268,2.84040522 C9.86591948,2.67021391 9.69692995,2.53873565 9.50152366,2.44597043 C9.30611738,2.35466609 9.09206398,2.30828348 8.85897497,2.30828348 C8.6188933,2.30828348 8.40173204,2.35466609 8.20632576,2.44597043 C8.01091948,2.53873565 7.84387236,2.67021391 7.7051844,2.84040522 C7.56688492,3.0102313 7.45811005,3.21073565 7.37885979,3.44118783 C7.29960953,3.67310087 7.26076136,3.92619652 7.26076136,4.2030313 C7.26076136,4.48059652 7.29960953,4.73369217 7.37885979,4.96560522 C7.45811005,5.19605739 7.56688492,5.39510087 7.7051844,5.56200522 C7.84387236,5.72890957 8.01091948,5.85929217 8.20632576,5.95205739 C8.40173204,6.04336174 8.6188933,6.08974435 8.85897497,6.08974435 C9.09206398,6.08974435 9.30611738,6.04336174 9.50152366,5.95205739 C9.69692995,5.85929217 9.86591948,5.72890957 10.0073268,5.56200522 C10.1495111,5.39510087 10.2586745,5.19605739 10.3340399,4.96560522 C10.4094053,4.73369217 10.4474765,4.48059652 10.4474765,4.2030313 C10.4474765,3.92619652 10.4094053,3.67310087 10.3340399,3.44118783 M10.9629917,5.16391826 C10.8526629,5.45901391 10.6961048,5.71174435 10.4944828,5.9250313 C10.2928608,6.13977913 10.0531676,6.30668348 9.77579173,6.42720522 C9.49841581,6.54918783 9.19268073,6.60908348 8.85897497,6.60908348 C8.52449225,6.60908348 8.21914565,6.54918783 7.94138126,6.42720522 C7.66400534,6.30668348 7.42470063,6.13977913 7.22307864,5.9250313 C7.02106817,5.71174435 6.86373309,5.45901391 6.74951948,5.16391826 C6.63608283,4.86991826 6.57975298,4.54962261 6.57975298,4.2030313 C6.57975298,3.85205739 6.63608283,3.5266487 6.74951948,3.23009217 C6.86373309,2.93317043 7.02106817,2.67788348 7.22307864,2.46313565 C7.42470063,2.2498487 7.66400534,2.08440522 7.94138126,1.96607478 C8.21914565,1.84847478 8.52449225,1.78930957 8.85897497,1.78930957 C9.19268073,1.78930957 9.49841581,1.84847478 9.77579173,1.96607478 C10.0531676,2.08440522 10.2928608,2.2498487 10.4944828,2.46313565 C10.6961048,2.67788348 10.8526629,2.93317043 10.9629917,3.23009217 C11.072932,3.5266487 11.1280964,3.85205739 11.1280964,4.2030313 C11.1280964,4.54962261 11.072932,4.86991826 10.9629917,5.16391826" id="Fill-51" fill="#FEFEFE"></path>
                        <path d="M17.5156287,6.40142087 C17.2603962,6.53983826 16.9433952,6.60886435 16.5654025,6.60886435 C16.2180999,6.60886435 15.9034297,6.54969913 15.6194496,6.4313687 C15.3362465,6.3137687 15.091503,6.14905565 14.8867732,5.93759478 C14.6820434,5.72796 14.5243198,5.47413391 14.413991,5.17648174 C14.3036622,4.88065565 14.2484978,4.55305565 14.2484978,4.19441217 C14.2484978,3.8485513 14.3067701,3.52898609 14.423703,3.23425565 C14.5398591,2.93952522 14.7006905,2.68642957 14.9058088,2.47168174 C15.1105386,2.25839478 15.3533397,2.09149043 15.6338235,1.97023826 C15.9139187,1.84971652 16.2215962,1.78909043 16.5556905,1.78909043 C16.8202465,1.78909043 17.0595512,1.82049913 17.2747701,1.88404696 C17.4888235,1.94759478 17.6651941,2.03159478 17.8038821,2.1349513 L17.8038821,1.69340348 L18.0404674,1.69340348 L18.0404674,2.91396 L17.7661994,2.91396 C17.7028769,2.73500348 17.561081,2.58818609 17.3404235,2.47168174 C17.1197659,2.35700348 16.8831805,2.30002957 16.6314444,2.30002957 C16.3731041,2.30002957 16.1396266,2.34422087 15.9317889,2.43333391 C15.7235627,2.52244696 15.5452496,2.65027304 15.3972381,2.81498609 C15.2488381,2.97969913 15.1338475,3.17728174 15.0518779,3.41102087 C14.9699083,3.64512522 14.9295062,3.90333391 14.9295062,4.18601217 C14.9295062,4.46905565 14.9699083,4.72726435 15.0518779,4.9613687 C15.1338475,5.19364696 15.2472842,5.39634261 15.3925763,5.5661687 C15.53748,5.73672522 15.7142392,5.86783826 15.9220769,5.96060348 C16.130303,6.05190783 16.3630036,6.09829043 16.6221208,6.09829043 C16.7608088,6.09829043 16.8956119,6.08039478 17.0288612,6.04277739 C17.1613334,6.00479478 17.2809858,5.95622087 17.3882067,5.89486435 C17.4950392,5.83423826 17.5878863,5.76667304 17.6671365,5.69180348 C17.7456098,5.61693391 17.8038821,5.53987304 17.8415648,5.45916 L18.0971858,5.85651652 C17.9647135,6.08112522 17.7704727,6.26300348 17.5156287,6.40142087" id="Fill-53" fill="#FEFEFE"></path>
                        <path d="M22.1539057,1.24345565 C22.083979,1.30700348 22.0027863,1.33914261 21.9076083,1.33914261 C21.8132072,1.33914261 21.7312376,1.30700348 21.6616994,1.24345565 C21.5925496,1.18063826 21.5583632,1.10503826 21.5583632,1.01957739 C21.5583632,0.93156 21.5925496,0.85742087 21.6616994,0.794238261 C21.7312376,0.730690435 21.8132072,0.698551304 21.9076083,0.698551304 C22.0027863,0.698551304 22.083979,0.730690435 22.1539057,0.794238261 C22.2234439,0.85742087 22.2580187,0.93156 22.2580187,1.01957739 C22.2580187,1.10503826 22.2234439,1.18063826 22.1539057,1.24345565 L22.1539057,1.24345565 Z M21.1516229,6.49710783 L21.1516229,6.28089913 L21.5583632,6.28089913 L21.5583632,2.10938609 C21.5331119,2.10938609 21.4853287,2.11011652 21.4165674,2.1137687 C21.3470292,2.11669043 21.2840952,2.1181513 21.2269884,2.1181513 L21.1419109,2.1181513 L21.1419109,1.89244696 L22.1818763,1.89244696 L22.1818763,6.28089913 L22.5886166,6.28089913 L22.5886166,6.49710783 L21.1516229,6.49710783 Z" id="Fill-55" fill="#FEFEFE"></path>
                        <path d="M28.6636154,2.71002261 C28.4142102,2.42478783 28.0913819,2.28271826 27.6943536,2.28271826 C27.2281756,2.28271826 26.8529023,2.45838783 26.5693107,2.81045739 C26.3420489,3.08729217 26.2068573,3.44118783 26.1629588,3.87433565 L29.0847295,3.87433565 C29.0524855,3.38421391 28.9130206,2.99671826 28.6636154,2.71002261 L28.6636154,2.71002261 Z M29.7564143,4.34217913 L26.1528583,4.34217913 C26.1784981,4.85567478 26.329229,5.27165739 26.6073819,5.58830087 C26.9158363,5.94000522 27.3353965,6.11604 27.8645086,6.11604 C28.0160164,6.11604 28.1768479,6.09339652 28.3470028,6.04701391 C28.5171578,6.0006313 28.6744929,5.94913565 28.8193965,5.89070087 C28.9643002,5.83372696 29.1317358,5.75812696 29.3205379,5.66536174 L29.5575117,6.09814435 C29.3240342,6.20296174 29.1208583,6.28805739 28.947207,6.35379652 C28.7743327,6.4206313 28.5835882,6.47979652 28.3757505,6.53129217 C28.1671358,6.58315304 27.9690102,6.60908348 27.7802081,6.60908348 C27.4200855,6.60908348 27.0988112,6.55320522 26.8152196,6.4414487 C26.531628,6.32786609 26.2907693,6.16753565 26.0918667,5.96045739 C25.8929641,5.75301391 25.7418447,5.49991826 25.6381201,5.20372696 C25.5336185,4.90644 25.4819505,4.5726313 25.4819505,4.2030313 C25.4819505,3.85717043 25.5355609,3.53614435 25.6427819,3.23922261 C25.7496143,2.94193565 25.8991798,2.6866487 26.0918667,2.47190087 C26.2841651,2.25861391 26.5110384,2.09170957 26.7728751,1.97045739 C27.0343232,1.84993565 27.3225766,1.78930957 27.6376353,1.78930957 C28.2996081,1.78930957 28.8166772,2.00369217 29.1884541,2.43318783 C29.5602311,2.86341391 29.752918,3.45908348 29.7653494,4.22165739 L29.7564143,4.34217913 Z" id="Fill-57" fill="#FEFEFE"></path>
                        <path d="M36.4556254,3.41120348 C36.3763752,3.17709913 36.2695427,2.97769043 36.1339626,2.81042087 C35.9983825,2.64351652 35.8344432,2.51386435 35.6421448,2.4247513 C35.4494579,2.33563826 35.2404548,2.29144696 35.0135815,2.29144696 C34.7863197,2.29144696 34.5831438,2.33782957 34.4036652,2.42913391 C34.2237982,2.52153391 34.0707364,2.65228174 33.9448684,2.81918609 C33.8186118,2.98609043 33.7207145,3.18878609 33.6511762,3.42398609 C33.582415,3.66101217 33.5478401,3.92068174 33.5478401,4.20299478 C33.5478401,4.48056 33.582415,4.73584696 33.6511762,4.9699513 C33.7207145,5.20369043 33.8221082,5.40127304 33.9545804,5.56598609 C34.0866642,5.73179478 34.2463302,5.85925565 34.4316359,5.95202087 C34.6181071,6.04332522 34.8240024,6.08970783 35.0516527,6.08970783 C35.278526,6.08970783 35.4844213,6.04113391 35.670504,5.94362087 C35.8561982,5.84428174 36.0154757,5.71097739 36.147948,5.54042087 C36.2808087,5.37059478 36.3841448,5.17009043 36.4602872,4.93854261 C36.5356527,4.70809043 36.5737239,4.45682087 36.5737239,4.18582957 C36.5737239,3.90351652 36.5337103,3.64530783 36.4556254,3.41120348 L36.4556254,3.41120348 Z M36.5737239,6.49692522 L36.5737239,5.77854261 C36.3526778,6.08459478 36.1098768,6.29459478 35.8457092,6.41000348 C35.5807647,6.52468174 35.2971731,6.58348174 34.9945459,6.58348174 C34.672883,6.58348174 34.3811333,6.52468174 34.1200736,6.41000348 C33.858237,6.29459478 33.634083,6.1331687 33.4487773,5.92499478 C33.2623061,5.71791652 33.1205103,5.46847304 33.0230014,5.17666435 C32.925104,4.88558609 32.8761553,4.56163826 32.8761553,4.20299478 C32.8761553,3.8399687 32.9231616,3.50981217 33.0175626,3.21216 C33.1131291,2.91633391 33.2498747,2.66141217 33.4297417,2.45031652 C33.6092202,2.24068174 33.8263815,2.07816 34.0823909,1.96165565 C34.3372349,1.84624696 34.6258768,1.78927304 34.9471511,1.78927304 C35.2369584,1.78927304 35.5224925,1.84624696 35.8029762,1.96165565 C36.0830715,2.07816 36.3402464,2.3027687 36.5737239,2.63657739 L36.5737239,0.481794783 C36.5480841,0.481794783 36.5057396,0.481064348 36.4459134,0.477412174 C36.3860872,0.47522087 36.3313113,0.473029565 36.2808087,0.473029565 L36.2046663,0.473029565 L36.2046663,0.266316522 L37.2073375,0.266316522 L37.2073375,6.28071652 L37.736838,6.28071652 L37.736838,6.49692522 L36.5737239,6.49692522 Z" id="Fill-59" fill="#FEFEFE"></path>
                        <path d="M43.4767713,4.43695304 C43.4014059,4.36792696 43.2937964,4.31131826 43.155497,4.26858783 C43.0164205,4.22585739 42.8656896,4.2028487 42.7017504,4.2028487 C42.1842928,4.20942261 41.7919263,4.30291826 41.5242624,4.48552696 C41.2562101,4.66594435 41.1221839,4.9128313 41.1221839,5.22509217 C41.1221839,5.48476174 41.2025996,5.6980487 41.3638195,5.86495304 C41.5242624,6.03258783 41.765121,6.11622261 42.0871724,6.11622261 C42.4523451,6.11622261 42.7565263,6.00702261 42.9993273,5.78716174 C43.2421284,5.56766609 43.4014059,5.28498783 43.4767713,4.93839652 L43.4767713,4.43695304 Z M43.5334896,6.49714435 L43.5334896,5.86495304 C43.3066163,6.13119652 43.0575996,6.31782261 42.7868279,6.42702261 C42.5152792,6.53695304 42.2476153,6.59173565 41.9826708,6.59173565 C41.7495818,6.59173565 41.5382477,6.55630957 41.3490572,6.48399652 C41.1602551,6.4120487 40.9990352,6.31380522 40.8669514,6.19036174 C40.7344792,6.06545739 40.6338624,5.92010087 40.5643242,5.75319652 C40.4951745,5.5848313 40.4602111,5.40624 40.4602111,5.21669217 C40.4602111,4.76637913 40.6494017,4.40554435 41.0277828,4.13382261 C41.4057755,3.8628313 41.9356645,3.72806609 42.6162844,3.72806609 C42.729721,3.72806609 42.8637472,3.73865739 43.0183629,3.7620313 C43.1725902,3.78504 43.3252635,3.82557913 43.4767713,3.88255304 L43.4767713,3.27775304 C43.4767713,2.92531826 43.3804279,2.66930087 43.1889064,2.50750957 C42.9962195,2.34608348 42.720786,2.26573565 42.3610519,2.26573565 C42.222364,2.26573565 42.0759064,2.27632696 41.9216792,2.29970087 C41.7670635,2.32270957 41.6264331,2.34681391 41.500565,2.37347478 C41.374697,2.39904 41.2259085,2.43556174 41.056142,2.48121391 L40.9143462,2.08312696 C41.0782854,2.01957913 41.2278509,1.97027478 41.3638195,1.93521391 C41.4986226,1.9012487 41.6579001,1.8676487 41.8404865,1.83697043 C42.0234614,1.80410087 42.2161483,1.78912696 42.4173818,1.78912696 C42.9725221,1.78912696 43.3928593,1.9140313 43.6799472,2.16493565 C43.9674237,2.41620522 44.1103849,2.78617043 44.1103849,3.27775304 L44.1103849,5.86495304 L44.1387441,6.27217043 L44.7439985,6.28093565 L44.7439985,6.49714435 L43.5334896,6.49714435 Z" id="Fill-61" fill="#FEFEFE"></path>
                        <path d="M50.9707771,3.41120348 C50.8915268,3.17709913 50.7846943,2.97769043 50.6491142,2.81042087 C50.5131457,2.64351652 50.3492064,2.51386435 50.156908,2.4247513 C49.9646095,2.33563826 49.7556064,2.29144696 49.5287331,2.29144696 C49.3010828,2.29144696 49.0982954,2.33782957 48.9184284,2.42913391 C48.7385614,2.52153391 48.5854996,2.65228174 48.46002,2.81918609 C48.3341519,2.98609043 48.2358661,3.18878609 48.1663279,3.42398609 C48.0975666,3.66101217 48.0629917,3.92068174 48.0629917,4.20299478 C48.0629917,4.48056 48.0975666,4.73584696 48.1663279,4.9699513 C48.2358661,5.20369043 48.3372598,5.40127304 48.4701205,5.56598609 C48.6014273,5.73179478 48.7614818,5.85925565 48.9463991,5.95202087 C49.1328703,6.04332522 49.339154,6.08970783 49.5664158,6.08970783 C49.7936776,6.08970783 49.9995729,6.04113391 50.1856556,5.94362087 C50.3717383,5.84428174 50.5306273,5.71097739 50.6630996,5.54042087 C50.7959603,5.37059478 50.8992964,5.17009043 50.9754388,4.93854261 C51.0508043,4.70809043 51.0888755,4.45682087 51.0888755,4.18582957 C51.0888755,3.90351652 51.0488619,3.64530783 50.9707771,3.41120348 L50.9707771,3.41120348 Z M51.0888755,6.49692522 L51.0888755,5.77854261 C50.8678294,6.08459478 50.6250284,6.29459478 50.3608608,6.41000348 C50.0955279,6.52468174 49.8123247,6.58348174 49.5096975,6.58348174 C49.1876462,6.58348174 48.8958964,6.52468174 48.6348368,6.41000348 C48.3730001,6.29459478 48.1492347,6.1331687 47.9635404,5.92499478 C47.7774577,5.71791652 47.6352734,5.46847304 47.5377645,5.17666435 C47.4402556,4.88558609 47.3916954,4.56163826 47.3916954,4.20299478 C47.3916954,3.8399687 47.4387017,3.50981217 47.5327142,3.21216 C47.6282807,2.91633391 47.7646378,2.66141217 47.9445048,2.45031652 C48.1239834,2.24068174 48.3419216,2.07816 48.597154,1.96165565 C48.851998,1.84624696 49.1406399,1.78927304 49.4623027,1.78927304 C49.7517216,1.78927304 50.0372556,1.84624696 50.3181279,1.96165565 C50.5986116,2.07816 50.8550095,2.3027687 51.0888755,2.63657739 L51.0888755,0.481794783 C51.0632357,0.481794783 51.0208912,0.481064348 50.961065,0.477412174 C50.9012388,0.47522087 50.8464629,0.473029565 50.7959603,0.473029565 L50.7198179,0.473029565 L50.7198179,0.266316522 L51.7221006,0.266316522 L51.7221006,6.28071652 L52.2519896,6.28071652 L52.2519896,6.49692522 L51.0888755,6.49692522 Z" id="Fill-63" fill="#FEFEFE"></path>
                        <path d="M58.1189953,2.71002261 C57.8695901,2.42478783 57.5463733,2.28271826 57.1497335,2.28271826 C56.6835555,2.28271826 56.3082822,2.45838783 56.0243021,2.81045739 C55.7974288,3.08729217 55.6618487,3.44118783 55.6183387,3.87433565 L58.5397209,3.87433565 C58.5078654,3.38421391 58.3684005,2.99671826 58.1189953,2.71002261 L58.1189953,2.71002261 Z M59.2117942,4.34217913 L55.6082382,4.34217913 C55.6334895,4.85567478 55.7846089,5.27165739 56.0623733,5.58830087 C56.3712162,5.94000522 56.790388,6.11604 57.3195,6.11604 C57.4713963,6.11604 57.6318393,6.09339652 57.8023827,6.04701391 C57.9721492,6.0006313 58.1298728,5.94913565 58.274388,5.89070087 C58.4196801,5.83372696 58.5867272,5.75812696 58.7759178,5.66536174 L59.0125031,6.09814435 C58.7794141,6.20296174 58.5762382,6.28805739 58.4021984,6.35379652 C58.2293241,6.4206313 58.0385796,6.47979652 57.8307419,6.53129217 C57.6225157,6.58315304 57.4243901,6.60908348 57.2351995,6.60908348 C56.8758539,6.60908348 56.5541911,6.55320522 56.270211,6.4414487 C55.9873963,6.32786609 55.7461492,6.16753565 55.5468581,5.96045739 C55.3479555,5.75301391 55.1972246,5.49991826 55.0935,5.20372696 C54.9886099,4.90644 54.9369419,4.5726313 54.9369419,4.2030313 C54.9369419,3.85717043 54.9905524,3.53614435 55.0977733,3.23922261 C55.2053827,2.94193565 55.3545597,2.6866487 55.5468581,2.47190087 C55.739545,2.25861391 55.9660298,2.09170957 56.228255,1.97045739 C56.4893147,1.84993565 56.778345,1.78930957 57.0926267,1.78930957 C57.754988,1.78930957 58.2720571,2.00369217 58.643834,2.43318783 C59.0159995,2.86341391 59.2082979,3.45908348 59.2203408,4.22165739 L59.2117942,4.34217913 Z" id="Fill-65" fill="#FEFEFE"></path>
                        <path d="M70.6008727,3.41120348 C70.5220109,3.17709913 70.4147899,2.97769043 70.2799868,2.81042087 C70.1440182,2.64351652 69.9804674,2.51386435 69.7877805,2.4247513 C69.5950936,2.33563826 69.386479,2.29144696 69.1596057,2.29144696 C68.9315669,2.29144696 68.728391,2.33782957 68.5496894,2.42913391 C68.3698224,2.52153391 68.2159837,2.65228174 68.0901156,2.81918609 C67.9642475,2.98609043 67.8667386,3.18878609 67.7968119,3.42398609 C67.7276622,3.66101217 67.6934758,3.92068174 67.6934758,4.20299478 C67.6934758,4.48056 67.7276622,4.73584696 67.7968119,4.9699513 C67.8667386,5.20369043 67.9677439,5.40127304 68.1002161,5.56598609 C68.2322999,5.73179478 68.3915774,5.85925565 68.5772716,5.95202087 C68.7633543,6.04332522 68.9696381,6.08970783 69.1972884,6.08970783 C69.4237732,6.08970783 69.630057,6.04113391 69.8165282,5.94362087 C70.0018339,5.84428174 70.1614999,5.71097739 70.2935837,5.54042087 C70.4264444,5.37059478 70.5297805,5.17009043 70.6055345,4.93854261 C70.6812884,4.70809043 70.7189711,4.45682087 70.7189711,4.18582957 C70.7189711,3.90351652 70.6797345,3.64530783 70.6008727,3.41120348 L70.6008727,3.41120348 Z M70.7189711,6.49692522 L70.7189711,5.77854261 C70.4983135,6.08459478 70.2555125,6.29459478 69.9909564,6.41000348 C69.7264004,6.52468174 69.4431973,6.58348174 69.1405701,6.58348174 C68.8181303,6.58348174 68.526769,6.52468174 68.2653208,6.41000348 C68.0038727,6.29459478 67.7797187,6.1331687 67.5948015,5.92499478 C67.4083303,5.71791652 67.266146,5.46847304 67.1690255,5.17666435 C67.0703512,4.88558609 67.021791,4.56163826 67.021791,4.20299478 C67.021791,3.8399687 67.0687973,3.50981217 67.1635868,3.21216 C67.2583763,2.91633391 67.3955104,2.66141217 67.5753774,2.45031652 C67.7548559,2.24068174 67.9720172,2.07816 68.2280266,1.96165565 C68.4832591,1.84624696 68.7715125,1.78927304 69.0931753,1.78927304 C69.3829826,1.78927304 69.6681282,1.84624696 69.9482235,1.96165565 C70.2287072,2.07816 70.4858821,2.3027687 70.7189711,2.63657739 L70.7189711,0.481794783 C70.6941083,0.481794783 70.6513753,0.481064348 70.5915491,0.477412174 C70.5321114,0.47522087 70.4773355,0.473029565 70.4264444,0.473029565 L70.3499135,0.473029565 L70.3499135,0.266316522 L71.3529732,0.266316522 L71.3529732,6.28071652 L71.8824737,6.28071652 L71.8824737,6.49692522 L70.7189711,6.49692522 Z" id="Fill-67" fill="#FEFEFE"></path>
                        <path d="M77.749829,2.71002261 C77.5004238,2.42478783 77.177207,2.28271826 76.7805672,2.28271826 C76.3143892,2.28271826 75.9391159,2.45838783 75.6555243,2.81045739 C75.4274855,3.08729217 75.2930709,3.44118783 75.2483955,3.87433565 L78.1709431,3.87433565 C78.1386992,3.38421391 77.9992342,2.99671826 77.749829,2.71002261 L77.749829,2.71002261 Z M78.841851,4.34217913 L75.2390719,4.34217913 C75.2639348,4.85567478 75.4150541,5.27165739 75.6928185,5.58830087 C76.0020499,5.94000522 76.4212217,6.11604 76.9503337,6.11604 C77.1014531,6.11604 77.2630615,6.09339652 77.4332164,6.04701391 C77.6029829,6.0006313 77.760318,5.94913565 77.9056102,5.89070087 C78.0501253,5.83372696 78.2179494,5.75812696 78.406363,5.66536174 L78.6429484,6.09814435 C78.4102479,6.20296174 78.2066835,6.28805739 78.0330321,6.35379652 C77.8601578,6.4206313 77.6694133,6.47979652 77.4619641,6.53129217 C77.2533494,6.58315304 77.0544468,6.60908348 76.8656447,6.60908348 C76.5059107,6.60908348 76.1850248,6.55320522 75.9006562,6.4414487 C75.6174531,6.32786609 75.376206,6.16753565 75.1773034,5.96045739 C74.9787892,5.75301391 74.8276698,5.49991826 74.7235568,5.20372696 C74.6194437,4.90644 74.5677756,4.5726313 74.5677756,4.2030313 C74.5677756,3.85717043 74.6209976,3.53614435 74.728607,3.23922261 C74.8354395,2.94193565 74.9853934,2.6866487 75.1773034,2.47190087 C75.3703787,2.25861391 75.597252,2.09170957 75.8587002,1.97045739 C76.1201484,1.84993565 76.4084018,1.78930957 76.7238489,1.78930957 C77.3858217,1.78930957 77.9025023,2.00369217 78.2746677,2.43318783 C78.6460562,2.86341391 78.8383547,3.45908348 78.8511746,4.22165739 L78.841851,4.34217913 Z" id="Fill-69" fill="#FEFEFE"></path>
                        <path d="M89.6592398,4.43695304 C89.5842628,4.36792696 89.4762649,4.31131826 89.3383539,4.26858783 C89.1992775,4.22585739 89.0485466,4.2028487 88.8846073,4.2028487 C88.3671497,4.20942261 87.9751717,4.30291826 87.7067309,4.48552696 C87.4394555,4.66594435 87.3050408,4.9128313 87.3050408,5.22509217 C87.3050408,5.48476174 87.3850681,5.6980487 87.5466764,5.86495304 C87.7067309,6.03258783 87.947978,6.11622261 88.2700293,6.11622261 C88.6348136,6.11622261 88.9389948,6.00702261 89.1817958,5.78716174 C89.4245969,5.56766609 89.5842628,5.28498783 89.6592398,4.93839652 L89.6592398,4.43695304 Z M89.7159581,6.49714435 L89.7159581,5.86495304 C89.4894733,6.13119652 89.2400681,6.31782261 88.9692963,6.42702261 C88.6977476,6.53695304 88.4300838,6.59173565 88.1651393,6.59173565 C87.9324387,6.59173565 87.7211047,6.55630957 87.5315257,6.48399652 C87.3427236,6.4120487 87.1822806,6.31380522 87.0494199,6.19036174 C86.9169476,6.06545739 86.8167194,5.92010087 86.7471812,5.75319652 C86.6776429,5.5848313 86.6430681,5.40624 86.6430681,5.21669217 C86.6430681,4.76637913 86.8318702,4.40554435 87.2102513,4.13382261 C87.5886325,3.8628313 88.118133,3.72806609 88.7991414,3.72806609 C88.912578,3.72806609 89.0469927,3.73865739 89.2008314,3.7620313 C89.3550586,3.78504 89.5081204,3.82557913 89.6592398,3.88255304 L89.6592398,3.27775304 C89.6592398,2.92531826 89.5632848,2.66930087 89.3713749,2.50750957 C89.178688,2.34608348 88.9032545,2.26573565 88.5435204,2.26573565 C88.4048325,2.26573565 88.2587634,2.27632696 88.1045361,2.29970087 C87.9495319,2.32270957 87.8089016,2.34681391 87.6830335,2.37347478 C87.5575539,2.39904 87.4087654,2.43556174 87.238999,2.48121391 L87.0968147,2.08312696 C87.2611424,2.01957913 87.4103194,1.97027478 87.5466764,1.93521391 C87.6810911,1.9012487 87.8407571,1.8676487 88.0237319,1.83697043 C88.2067068,1.80410087 88.3990052,1.78912696 88.5998503,1.78912696 C89.1553791,1.78912696 89.5761047,1.9140313 89.8624157,2.16493565 C90.1498921,2.41620522 90.2932419,2.78617043 90.2932419,3.27775304 L90.2932419,5.86495304 L90.321601,6.27217043 L90.926467,6.28093565 L90.926467,6.49714435 L89.7159581,6.49714435 Z" id="Fill-71" fill="#FEFEFE"></path>
                        <path d="M97.1530513,3.41120348 C97.0741895,3.17709913 96.9669686,2.97769043 96.831777,2.81042087 C96.6958084,2.64351652 96.5318691,2.51386435 96.3395707,2.4247513 C96.1476607,2.33563826 95.9382691,2.29144696 95.7113958,2.29144696 C95.484134,2.29144696 95.2805696,2.33782957 95.1014796,2.42913391 C94.9212241,2.52153391 94.7685508,2.65228174 94.6426827,2.81918609 C94.5164262,2.98609043 94.4185288,3.18878609 94.3493791,3.42398609 C94.2798408,3.66101217 94.2460429,3.92068174 94.2460429,4.20299478 C94.2460429,4.48056 94.2798408,4.73584696 94.3493791,4.9699513 C94.4185288,5.20369043 94.5199225,5.40127304 94.6523948,5.56598609 C94.784867,5.73179478 94.943756,5.85925565 95.1298387,5.95202087 C95.3159215,6.04332522 95.5218168,6.08970783 95.7490785,6.08970783 C95.9763403,6.08970783 96.1822356,6.04113391 96.3683183,5.94362087 C96.554401,5.84428174 96.7132901,5.71097739 96.8457623,5.54042087 C96.978623,5.37059478 97.0819592,5.17009043 97.1581016,4.93854261 C97.2338555,4.70809043 97.2715382,4.45682087 97.2715382,4.18582957 C97.2715382,3.90351652 97.2315246,3.64530783 97.1530513,3.41120348 L97.1530513,3.41120348 Z M97.2715382,6.49692522 L97.2715382,5.77854261 C97.0508806,6.08459478 96.8080796,6.29459478 96.5431351,6.41000348 C96.2789675,6.52468174 95.9949874,6.58348174 95.6927487,6.58348174 C95.3706974,6.58348174 95.0793361,6.52468174 94.8174995,6.41000348 C94.5556628,6.29459478 94.3318974,6.1331687 94.1465916,5.92499478 C93.9601204,5.71791652 93.8179361,5.46847304 93.7208157,5.17666435 C93.6229183,4.88558609 93.5743581,4.56163826 93.5743581,4.20299478 C93.5743581,3.8399687 93.6213644,3.50981217 93.715377,3.21216 C93.810555,2.91633391 93.9480775,2.66141217 94.1279445,2.45031652 C94.3066461,2.24068174 94.5241958,2.07816 94.7805937,1.96165565 C95.0350492,1.84624696 95.3233026,1.78927304 95.6449654,1.78927304 C95.9347728,1.78927304 96.2206953,1.84624696 96.5007906,1.96165565 C96.7808859,2.07816 97.0384492,2.3027687 97.2715382,2.63657739 L97.2715382,0.481794783 C97.2458984,0.481794783 97.2035539,0.481064348 97.1437277,0.477412174 C97.0839016,0.47522087 97.0291257,0.473029565 96.978623,0.473029565 L96.9020921,0.473029565 L96.9020921,0.266316522 L97.9047634,0.266316522 L97.9047634,6.28071652 L98.4350408,6.28071652 L98.4350408,6.49692522 L97.2715382,6.49692522 Z" id="Fill-73" fill="#FEFEFE"></path>
                        <polygon id="Fill-75" fill="#FEFEFE" points="105.223914 2.10942261 103.616376 6.52270957 102.935368 6.52270957 101.337543 2.10942261 101.01588 2.10942261 101.01588 1.89248348 102.255137 1.89248348 102.255137 2.10942261 101.999516 2.10942261 103.275678 5.83938783 104.580588 2.10942261 104.316032 2.10942261 104.316032 1.89248348 105.517217 1.89248348 105.517217 2.10942261"></polygon>
                        <path d="M111.578852,3.44118783 C111.50271,3.21073565 111.393935,3.0102313 111.251751,2.84040522 C111.110732,2.67021391 110.941354,2.53873565 110.746336,2.44597043 C110.55093,2.35466609 110.336488,2.30828348 110.103399,2.30828348 C109.863317,2.30828348 109.646156,2.35466609 109.45075,2.44597043 C109.254955,2.53873565 109.088296,2.67021391 108.949997,2.84040522 C108.81092,3.0102313 108.702534,3.21073565 108.623284,3.44118783 C108.544033,3.67310087 108.505185,3.92619652 108.505185,4.2030313 C108.505185,4.48059652 108.544033,4.73369217 108.623284,4.96560522 C108.702534,5.19605739 108.81092,5.39510087 108.949997,5.56200522 C109.088296,5.72890957 109.254955,5.85929217 109.45075,5.95205739 C109.646156,6.04336174 109.863317,6.08974435 110.103399,6.08974435 C110.336488,6.08974435 110.55093,6.04336174 110.746336,5.95205739 C110.941354,5.85929217 111.110732,5.72890957 111.251751,5.56200522 C111.393935,5.39510087 111.50271,5.19605739 111.578852,4.96560522 C111.653829,4.73369217 111.692289,4.48059652 111.692289,4.2030313 C111.692289,3.92619652 111.653829,3.67310087 111.578852,3.44118783 M112.207415,5.16391826 C112.096698,5.45901391 111.940529,5.71174435 111.738907,5.9250313 C111.537285,6.13977913 111.297591,6.30668348 111.020604,6.42720522 C110.74284,6.54918783 110.437493,6.60908348 110.103399,6.60908348 C109.769305,6.60908348 109.463569,6.54918783 109.186194,6.42720522 C108.908429,6.30668348 108.669124,6.13977913 108.467502,5.9250313 C108.265492,5.71174435 108.108157,5.45901391 107.993943,5.16391826 C107.880507,4.86991826 107.823788,4.54962261 107.823788,4.2030313 C107.823788,3.85205739 107.880507,3.5266487 107.993943,3.23009217 C108.108157,2.93317043 108.265492,2.67788348 108.467502,2.46313565 C108.669124,2.2498487 108.908429,2.08440522 109.186194,1.96607478 C109.463569,1.84847478 109.769305,1.78930957 110.103399,1.78930957 C110.437493,1.78930957 110.74284,1.84847478 111.020604,1.96607478 C111.297591,2.08440522 111.537285,2.2498487 111.738907,2.46313565 C111.940529,2.67788348 112.096698,2.93317043 112.207415,3.23009217 C112.316967,3.5266487 112.37252,3.85205739 112.37252,4.2030313 C112.37252,4.54962261 112.316967,4.86991826 112.207415,5.16391826" id="Fill-77" fill="#FEFEFE"></path>
                        <g id="Group-81" transform="translate(115.379058, 1.460870)">
                            <mask id="mask-15" fill="white">
                                <use xlink:href="#path-14"></use>
                            </mask>
                            <g id="Clip-80"></g>
                            <path d="M3.4333622,1.34973391 C3.16220199,1.00862087 2.7803245,0.83916 2.28928366,0.83916 C2.06279885,0.83916 1.85690356,0.885542609 1.67470565,0.976846957 C1.49173079,1.06924696 1.33439571,1.20072522 1.20192346,1.37128174 C1.0694512,1.54074261 0.968445969,1.74270783 0.898907749,1.97608174 C0.82975801,2.20982087 0.795183141,2.46839478 0.795183141,2.75070783 C0.795183141,3.02169913 0.82975801,3.26858609 0.898907749,3.49027304 C0.968445969,3.71378609 1.06789728,3.90406435 1.19687319,4.0625687 C1.32623759,4.22070783 1.48240723,4.34488174 1.66577058,4.43399478 C1.84796848,4.52310783 2.05269832,4.56876 2.2799601,4.56876 C2.5068334,4.56876 2.71622503,4.52274261 2.90813497,4.42997739 C3.10082188,4.33867304 3.26670356,4.21084696 3.40500304,4.04978609 C3.54369099,3.88762957 3.65091194,3.69442957 3.72666586,3.46909043 C3.80241979,3.24411652 3.84010251,3.00234261 3.84010251,2.74230783 C3.84010251,2.15357739 3.70452241,1.69011652 3.4333622,1.34973391 L3.4333622,1.34973391 Z M4.47332764,0.648516522 L4.47332764,4.87152522 C4.47332764,5.19437739 4.42010565,5.48326435 4.31327319,5.73745565 C4.20566377,5.9905513 4.05415592,6.20676 3.85913812,6.38571652 C3.66373183,6.56467304 3.42403864,6.70089913 3.14044702,6.79731652 C2.85724387,6.89227304 2.54140827,6.93938609 2.19488262,6.93938609 C1.81650147,6.93938609 1.4851266,6.90067304 1.20192346,6.82288174 C0.917943351,6.74509043 0.701170576,6.65378609 0.549274241,6.55042957 L0.757500419,6.04825565 C0.870937068,6.13481217 1.06362398,6.22027304 1.33439571,6.30354261 C1.60516743,6.38717739 1.90157895,6.42844696 2.22324178,6.42844696 C2.75895801,6.42844696 3.16220199,6.29076 3.4333622,6.01392522 C3.70452241,5.73745565 3.84010251,5.3185513 3.84010251,4.75940348 L3.84010251,4.19587304 C3.64469623,4.52529913 3.40500304,4.75282957 3.12141141,4.87992522 C2.83820827,5.00702087 2.54490461,5.0705687 2.24227738,5.0705687 C1.92644178,5.0705687 1.63857686,5.01249913 1.37674021,4.89709043 C1.11529204,4.78204696 0.891526597,4.62390783 0.705443874,4.42121217 C0.51897267,4.21997739 0.374457487,3.97747304 0.27073288,3.69442957 C0.166231309,3.4117513 0.114174764,3.1009513 0.114174764,2.7605687 C0.114174764,2.39608174 0.165065864,2.06446435 0.265682618,1.76498609 C0.36591089,1.46441217 0.508483665,1.20839478 0.690681571,0.993646957 C0.87365644,0.78036 1.09781037,0.617107826 1.36236639,0.500968696 C1.62769937,0.385194783 1.92372241,0.32822087 2.25121246,0.32822087 C2.38990042,0.32822087 2.52548052,0.336986087 2.65834126,0.353786087 C2.79081351,0.371681739 2.92289728,0.406742609 3.05498105,0.461525217 C3.1874533,0.516673043 3.3187601,0.592273043 3.44734754,0.687229565 C3.57671194,0.782551304 3.70763026,0.907455652 3.84010251,1.0637687 L3.84010251,0.431577391 L4.99389309,0.431577391 L4.99389309,0.648516522 L4.47332764,0.648516522 Z" id="Fill-79" fill="#FEFEFE" mask="url(#mask-15)"></path>
                        </g>
                        <path d="M126.1029,4.43695304 C126.027146,4.36792696 125.920314,4.31131826 125.781237,4.26858783 C125.642549,4.22585739 125.49143,4.2028487 125.327879,4.2028487 C124.810421,4.20942261 124.418055,4.30291826 124.150003,4.48552696 C123.882339,4.66594435 123.748313,4.9128313 123.748313,5.22509217 C123.748313,5.48476174 123.828728,5.6980487 123.98956,5.86495304 C124.150003,6.03258783 124.39125,6.11622261 124.712913,6.11622261 C125.078474,6.11622261 125.382655,6.00702261 125.625456,5.78716174 C125.867869,5.56766609 126.027146,5.28498783 126.1029,4.93839652 L126.1029,4.43695304 Z M126.159618,6.49714435 L126.159618,5.86495304 C125.933134,6.13119652 125.683728,6.31782261 125.412568,6.42702261 C125.141408,6.53695304 124.873355,6.59173565 124.609188,6.59173565 C124.376099,6.59173565 124.164376,6.55630957 123.975186,6.48399652 C123.785995,6.4120487 123.625164,6.31380522 123.492692,6.19036174 C123.360219,6.06545739 123.259991,5.92010087 123.190453,5.75319652 C123.121303,5.5848313 123.085951,5.40624 123.085951,5.21669217 C123.085951,4.76637913 123.27553,4.40554435 123.653912,4.13382261 C124.031904,3.8628313 124.562182,3.72806609 125.242413,3.72806609 C125.355461,3.72806609 125.489876,3.73865739 125.644492,3.7620313 C125.799107,3.78504 125.951392,3.82557913 126.1029,3.88255304 L126.1029,3.27775304 C126.1029,2.92531826 126.006557,2.66930087 125.815035,2.50750957 C125.622348,2.34608348 125.346526,2.26573565 124.986792,2.26573565 C124.848493,2.26573565 124.701647,2.27632696 124.547808,2.29970087 C124.392804,2.32270957 124.252562,2.34681391 124.126694,2.37347478 C124.000437,2.39904 123.852037,2.43556174 123.681882,2.48121391 L123.540475,2.08312696 C123.704414,2.01957913 123.853591,1.97027478 123.98956,1.93521391 C124.12514,1.9012487 124.28364,1.8676487 124.466615,1.83697043 C124.64959,1.80410087 124.842277,1.78912696 125.04351,1.78912696 C125.598651,1.78912696 126.018988,1.9140313 126.305687,2.16493565 C126.593552,2.41620522 126.736125,2.78617043 126.736125,3.27775304 L126.736125,5.86495304 L126.765261,6.27217043 L127.369739,6.28093565 L127.369739,6.49714435 L126.159618,6.49714435 Z" id="Fill-82" fill="#FEFEFE"></path>
                        <path d="M133.596362,3.41120348 C133.5175,3.17709913 133.410279,2.97769043 133.275476,2.81042087 C133.139507,2.64351652 132.975957,2.51386435 132.78327,2.4247513 C132.590971,2.33563826 132.381968,2.29144696 132.155095,2.29144696 C131.927056,2.29144696 131.72388,2.33782957 131.545179,2.42913391 C131.365312,2.52153391 131.211861,2.65228174 131.085605,2.81918609 C130.959737,2.98609043 130.862228,3.18878609 130.792301,3.42398609 C130.723151,3.66101217 130.688965,3.92068174 130.688965,4.20299478 C130.688965,4.48056 130.723151,4.73584696 130.792301,4.9699513 C130.862228,5.20369043 130.963233,5.40127304 131.095705,5.56598609 C131.227789,5.73179478 131.387067,5.85925565 131.572761,5.95202087 C131.759232,6.04332522 131.965127,6.08970783 132.192778,6.08970783 C132.419651,6.08970783 132.625546,6.04113391 132.811629,5.94362087 C132.997323,5.84428174 133.156601,5.71097739 133.289073,5.54042087 C133.421934,5.37059478 133.52527,5.17009043 133.601024,4.93854261 C133.677166,4.70809043 133.714849,4.45682087 133.714849,4.18582957 C133.714849,3.90351652 133.675224,3.64530783 133.596362,3.41120348 L133.596362,3.41120348 Z M133.714849,6.49692522 L133.714849,5.77854261 C133.493803,6.08459478 133.251002,6.29459478 132.986446,6.41000348 C132.72189,6.52468174 132.438686,6.58348174 132.136059,6.58348174 C131.814008,6.58348174 131.522647,6.52468174 131.26081,6.41000348 C130.999362,6.29459478 130.775208,6.1331687 130.590291,5.92499478 C130.403819,5.71791652 130.261635,5.46847304 130.164515,5.17666435 C130.066229,4.88558609 130.01728,4.56163826 130.01728,4.20299478 C130.01728,3.8399687 130.064286,3.50981217 130.158688,3.21216 C130.253866,2.91633391 130.391,2.66141217 130.570867,2.45031652 C130.750345,2.24068174 130.967506,2.07816 131.223516,1.96165565 C131.478748,1.84624696 131.767002,1.78927304 132.088276,1.78927304 C132.378472,1.78927304 132.664006,1.84624696 132.944101,1.96165565 C133.224196,2.07816 133.481371,2.3027687 133.714849,2.63657739 L133.714849,0.481794783 C133.689597,0.481794783 133.646865,0.481064348 133.587038,0.477412174 C133.527601,0.47522087 133.472436,0.473029565 133.421934,0.473029565 L133.345403,0.473029565 L133.345403,0.266316522 L134.348851,0.266316522 L134.348851,6.28071652 L134.877963,6.28071652 L134.877963,6.49692522 L133.714849,6.49692522 Z" id="Fill-84" fill="#FEFEFE"></path>
                        <path d="M141.317824,3.44118783 C141.242847,3.21073565 141.133295,3.0102313 140.991499,2.84040522 C140.849703,2.67021391 140.680714,2.53873565 140.485307,2.44597043 C140.289901,2.35466609 140.076236,2.30828348 139.842759,2.30828348 C139.603066,2.30828348 139.385904,2.35466609 139.19011,2.44597043 C138.994703,2.53873565 138.827656,2.67021391 138.688968,2.84040522 C138.550669,3.0102313 138.442282,3.21073565 138.363032,3.44118783 C138.283393,3.67310087 138.244934,3.92619652 138.244934,4.2030313 C138.244934,4.48059652 138.283393,4.73369217 138.363032,4.96560522 C138.442282,5.19605739 138.550669,5.39510087 138.688968,5.56200522 C138.827656,5.72890957 138.994703,5.85929217 139.19011,5.95205739 C139.385904,6.04336174 139.603066,6.08974435 139.842759,6.08974435 C140.076236,6.08974435 140.289901,6.04336174 140.485307,5.95205739 C140.680714,5.85929217 140.849703,5.72890957 140.991499,5.56200522 C141.133295,5.39510087 141.242847,5.19605739 141.317824,4.96560522 C141.393189,4.73369217 141.43126,4.48059652 141.43126,4.2030313 C141.43126,3.92619652 141.393189,3.67310087 141.317824,3.44118783 M141.946775,5.16391826 C141.836835,5.45901391 141.679889,5.71174435 141.478655,5.9250313 C141.277033,6.13977913 141.036951,6.30668348 140.759964,6.42720522 C140.4822,6.54918783 140.176465,6.60908348 139.842759,6.60908348 C139.508276,6.60908348 139.203318,6.54918783 138.925165,6.42720522 C138.647789,6.30668348 138.408484,6.13977913 138.206474,5.9250313 C138.00524,5.71174435 137.847905,5.45901391 137.733303,5.16391826 C137.619867,4.86991826 137.563537,4.54962261 137.563537,4.2030313 C137.563537,3.85205739 137.619867,3.5266487 137.733303,3.23009217 C137.847905,2.93317043 138.00524,2.67788348 138.206474,2.46313565 C138.408484,2.2498487 138.647789,2.08440522 138.925165,1.96607478 C139.203318,1.84847478 139.508276,1.78930957 139.842759,1.78930957 C140.176465,1.78930957 140.4822,1.84847478 140.759964,1.96607478 C141.036951,2.08440522 141.277033,2.2498487 141.478655,2.46313565 C141.679889,2.67788348 141.836835,2.93317043 141.946775,3.23009217 C142.056716,3.5266487 142.11188,3.85205739 142.11188,4.2030313 C142.11188,4.54962261 142.056716,4.86991826 141.946775,5.16391826" id="Fill-86" fill="#FEFEFE"></path>
                        <path d="M147.738377,6.25022087 C147.429145,6.49491652 147.009974,6.61762957 146.480862,6.61762957 C146.22796,6.61762957 145.983605,6.58768174 145.747408,6.52705565 C145.511211,6.46716 145.323186,6.37512522 145.184498,6.25460348 L145.184498,6.59206435 L144.938589,6.59206435 L144.938589,5.50189043 L145.22257,5.50189043 C145.241994,5.58844696 145.285504,5.66952522 145.35543,5.74877739 C145.424968,5.82583826 145.515873,5.89267304 145.62931,5.94782087 C145.742358,6.00187304 145.870168,6.04533391 146.012741,6.07674261 C146.15376,6.10961217 146.306433,6.12458609 146.470761,6.12458609 C146.615665,6.12458609 146.752799,6.10486435 146.882552,6.06396 C147.011528,6.0241513 147.126518,5.96900348 147.227523,5.89924696 C147.327752,5.83022087 147.407002,5.74658609 147.46372,5.64834261 C147.520439,5.55046435 147.549186,5.44053391 147.549186,5.32001217 C147.549186,5.06034261 147.455562,4.86349043 147.269479,4.72726435 C147.084174,4.5917687 146.817675,4.4741687 146.470761,4.37629043 C146.274966,4.31931652 146.090826,4.25357739 145.917563,4.18162957 C145.7443,4.10968174 145.591239,4.02312522 145.459155,3.92196 C145.326683,3.82152522 145.22257,3.70027304 145.146816,3.55893391 C145.071062,3.41759478 145.033379,3.2521513 145.033379,3.06114261 C145.033379,2.86538609 145.073004,2.68716 145.151866,2.52902087 C145.230728,2.36978609 145.33756,2.23648174 145.473529,2.1265513 C145.608332,2.01662087 145.771106,1.9333513 145.960296,1.87528174 C146.149098,1.81830783 146.354217,1.78909043 146.574874,1.78909043 C146.788928,1.78909043 147.00842,1.81903826 147.231797,1.87966435 C147.455562,1.94029043 147.630767,2.01442957 147.757024,2.10025565 L147.757024,1.78069043 L147.992832,1.78069043 L147.992832,2.77554261 L147.718953,2.79270783 L147.718953,2.74997739 C147.624163,2.62288174 147.474598,2.51331652 147.269479,2.4205513 C147.065138,2.32924696 146.842927,2.28286435 146.603622,2.28286435 C146.29439,2.28286435 146.059748,2.35262087 145.898916,2.49469043 C145.738085,2.63602957 145.657669,2.81571652 145.657669,3.03521217 C145.657669,3.2437513 145.750905,3.41065565 145.936599,3.53738609 C146.122293,3.66448174 146.404331,3.77916 146.7831,3.88288174 C147.280357,4.01545565 147.642422,4.19222087 147.86541,4.41062087 C148.089564,4.63011652 148.201059,4.91279478 148.201059,5.25938609 C148.201059,5.67390783 148.04722,6.00479478 147.738377,6.25022087" id="Fill-88" fill="#FEFEFE"></path>
                    </g>
                </g>
            </g>
        </g>
    </g>
</svg>